<?xml version="1.0" encoding="utf-8"?>
<!-- Generator: Adobe Illustrator 23.0.3, SVG Export Plug-In . SVG Version: 6.00 Build 0)  -->
<svg version="1.1" id="Livello_1" xmlns="http://www.w3.org/2000/svg" xmlns:xlink="http://www.w3.org/1999/xlink" x="0px" y="0px"
	 viewBox="0 0 227 85" style="enable-background:new 0 0 227 85;" xml:space="preserve">
<style type="text/css">
	.st0{fill:#282828;}
	.st1{fill:#FF005C;}
	.st2{fill:none;stroke:#FF005C;stroke-width:2;}
</style>
<path class="st0" d="M15.66,25.15h7.5v2.34c2.28-1.86,5.22-2.94,8.52-2.94c7.92,0,14.28,6.6,14.28,15.18c0,3.96-1.38,7.56-3.66,10.2
	c-2.58,3-6.72,4.92-11.04,4.92c-2.94,0-5.46-0.84-7.8-2.64v16.44h-7.8V25.15z M23.46,44.05c1.5,2.16,4.08,3.6,7.02,3.6
	c4.38,0,7.68-3.36,7.68-7.92c0-4.2-2.94-7.98-7.5-7.98c-3,0-5.58,1.44-7.2,3.6V44.05z"/>
<path class="st0" d="M66.24,24.55c8.82,0,15.48,6.78,15.48,15.18s-6.66,15.12-15.48,15.12c-8.82,0-15.48-6.72-15.48-15.12
	S57.42,24.55,66.24,24.55z M66.24,47.65c4.56,0,7.68-3.54,7.68-7.92s-3.12-7.98-7.68-7.98c-4.56,0-7.68,3.6-7.68,7.98
	S61.68,47.65,66.24,47.65z"/>
<path class="st1" d="M205.87,31.72c2.82,0,5.1,2.16,5.1,4.98c0,2.82-2.28,4.98-5.1,4.98c-2.82,0-5.1-2.16-5.1-4.98
	C200.77,33.88,203.05,31.72,205.87,31.72z"/>
<rect x="88.32" y="25.15" class="st0" width="7.8" height="29.1"/>
<path class="st0" d="M105.12,54.25v-29.1h7.5v2.34c2.22-1.8,4.98-2.94,8.22-2.94c4.02,0,7.68,1.8,10.08,4.68
	c1.92,2.28,3,5.22,3,10.2v14.82h-7.8V38.83c0-2.88-0.66-4.38-1.74-5.46c-1.02-1.02-2.58-1.62-4.38-1.62c-3.3,0-6,2.1-7.08,3.6v18.9
	H105.12z"/>
<path class="st0" d="M163.02,54.25c-1.02,0.36-3.36,0.6-4.86,0.6c-4.68,0-8.1-1.56-10.08-4.2c-1.5-1.98-2.16-4.56-2.16-8.7v-10.2
	h-8.1v-6.6h8.1v-8.1h7.8v8.1h9.6v6.6h-9.6v11.1c0,1.8,0.3,2.88,0.96,3.66c0.78,0.9,2.04,1.44,3.96,1.44c1.14,0,2.64-0.18,3.18-0.3
	L163.02,54.25z"/>
<path class="st1" d="M195.93,49.63c-2.82,3.36-7.44,5.22-11.94,5.22c-8.7,0-15.24-6-15.24-15.12c0-8.1,5.52-15.18,14.16-15.18
	c8.04,0,13.74,6.78,13.74,14.88c0,0.78-0.06,1.56-0.18,2.22h-20.16c0.42,4.08,3.72,6.9,7.86,6.9c3.3,0,5.94-1.86,7.32-3.36
	L195.93,49.63z M188.67,35.95c-0.24-2.58-2.58-5.1-5.76-5.1c-3.24,0-5.88,2.46-6.24,5.1H188.67z"/>
<path class="st2" d="M205.83,18.25c2.29,0,4.14,1.76,4.14,4.05c0,2.29-1.85,4.05-4.14,4.05c-2.29,0-4.14-1.76-4.14-4.05
	C201.68,20,203.53,18.25,205.83,18.25z"/>
</svg>
