<?xml version="1.0" encoding="utf-8"?>
<!-- Generator: Adobe Illustrator 23.0.3, SVG Export Plug-In . SVG Version: 6.00 Build 0)  -->
<svg version="1.1" id="Livello_1" xmlns="http://www.w3.org/2000/svg" xmlns:xlink="http://www.w3.org/1999/xlink" x="0px" y="0px"
	 viewBox="0 0 538 485" style="enable-background:new 0 0 538 485;" xml:space="preserve">
<style type="text/css">
	.st0{clip-path:url(#SVGID_2_);}
	.st1{clip-path:url(#SVGID_4_);}
	.st2{fill:#FF005B;}
	.st3{clip-path:url(#SVGID_6_);}
	.st4{clip-path:url(#SVGID_8_);}
	.st5{clip-path:url(#SVGID_10_);}
	.st6{clip-path:url(#SVGID_12_);}
	.st7{clip-path:url(#SVGID_14_);}
	.st8{clip-path:url(#SVGID_16_);}
	.st9{clip-path:url(#SVGID_18_);}
	.st10{clip-path:url(#SVGID_20_);}
	.st11{clip-path:url(#SVGID_22_);}
	.st12{clip-path:url(#SVGID_24_);}
	.st13{clip-path:url(#SVGID_26_);}
	.st14{clip-path:url(#SVGID_28_);}
	.st15{clip-path:url(#SVGID_30_);}
	.st16{clip-path:url(#SVGID_32_);}
	.st17{clip-path:url(#SVGID_34_);}
	.st18{clip-path:url(#SVGID_36_);}
	.st19{clip-path:url(#SVGID_38_);}
	.st20{clip-path:url(#SVGID_40_);}
	.st21{clip-path:url(#SVGID_42_);}
	.st22{clip-path:url(#SVGID_44_);}
	.st23{clip-path:url(#SVGID_46_);}
	.st24{clip-path:url(#SVGID_48_);}
	.st25{clip-path:url(#SVGID_50_);}
	.st26{clip-path:url(#SVGID_52_);}
	.st27{clip-path:url(#SVGID_54_);}
	.st28{clip-path:url(#SVGID_56_);}
	.st29{clip-path:url(#SVGID_58_);}
	.st30{clip-path:url(#SVGID_60_);}
	.st31{clip-path:url(#SVGID_62_);}
	.st32{clip-path:url(#SVGID_64_);}
	.st33{clip-path:url(#SVGID_66_);}
	.st34{clip-path:url(#SVGID_68_);}
	.st35{clip-path:url(#SVGID_70_);}
	.st36{clip-path:url(#SVGID_72_);}
	.st37{clip-path:url(#SVGID_74_);}
	.st38{clip-path:url(#SVGID_76_);}
	.st39{clip-path:url(#SVGID_78_);}
	.st40{clip-path:url(#SVGID_80_);}
	.st41{clip-path:url(#SVGID_82_);}
	.st42{clip-path:url(#SVGID_84_);}
	.st43{clip-path:url(#SVGID_86_);}
	.st44{clip-path:url(#SVGID_88_);}
	.st45{clip-path:url(#SVGID_90_);}
	.st46{clip-path:url(#SVGID_92_);}
	.st47{clip-path:url(#SVGID_94_);}
	.st48{clip-path:url(#SVGID_96_);}
	.st49{clip-path:url(#SVGID_98_);}
	.st50{clip-path:url(#SVGID_100_);}
	.st51{clip-path:url(#SVGID_102_);}
	.st52{clip-path:url(#SVGID_104_);}
	.st53{clip-path:url(#SVGID_106_);}
	.st54{clip-path:url(#SVGID_108_);}
	.st55{clip-path:url(#SVGID_110_);}
	.st56{clip-path:url(#SVGID_112_);}
	.st57{clip-path:url(#SVGID_114_);}
	.st58{clip-path:url(#SVGID_116_);}
	.st59{clip-path:url(#SVGID_118_);}
	.st60{clip-path:url(#SVGID_120_);}
	.st61{clip-path:url(#SVGID_122_);}
	.st62{clip-path:url(#SVGID_124_);}
	.st63{clip-path:url(#SVGID_126_);}
	.st64{clip-path:url(#SVGID_128_);}
	.st65{clip-path:url(#SVGID_130_);}
	.st66{clip-path:url(#SVGID_132_);}
	.st67{clip-path:url(#SVGID_134_);}
	.st68{clip-path:url(#SVGID_136_);}
	.st69{clip-path:url(#SVGID_138_);}
	.st70{clip-path:url(#SVGID_140_);}
	.st71{clip-path:url(#SVGID_142_);}
	.st72{clip-path:url(#SVGID_144_);}
	.st73{clip-path:url(#SVGID_146_);}
	.st74{clip-path:url(#SVGID_148_);}
	.st75{clip-path:url(#SVGID_150_);}
	.st76{clip-path:url(#SVGID_152_);}
	.st77{clip-path:url(#SVGID_154_);}
	.st78{clip-path:url(#SVGID_156_);}
	.st79{clip-path:url(#SVGID_158_);}
	.st80{clip-path:url(#SVGID_160_);}
	.st81{clip-path:url(#SVGID_162_);}
	.st82{clip-path:url(#SVGID_164_);}
	.st83{clip-path:url(#SVGID_166_);}
	.st84{clip-path:url(#SVGID_168_);}
	.st85{clip-path:url(#SVGID_170_);}
	.st86{clip-path:url(#SVGID_172_);}
	.st87{clip-path:url(#SVGID_174_);}
	.st88{clip-path:url(#SVGID_176_);}
	.st89{clip-path:url(#SVGID_178_);}
	.st90{clip-path:url(#SVGID_180_);}
	.st91{clip-path:url(#SVGID_182_);}
	.st92{clip-path:url(#SVGID_184_);}
	.st93{clip-path:url(#SVGID_186_);}
	.st94{clip-path:url(#SVGID_188_);}
	.st95{clip-path:url(#SVGID_190_);}
	.st96{clip-path:url(#SVGID_192_);}
	.st97{clip-path:url(#SVGID_194_);}
	.st98{clip-path:url(#SVGID_196_);}
	.st99{clip-path:url(#SVGID_198_);}
	.st100{clip-path:url(#SVGID_200_);}
	.st101{clip-path:url(#SVGID_202_);}
	.st102{clip-path:url(#SVGID_204_);}
	.st103{clip-path:url(#SVGID_206_);}
	.st104{clip-path:url(#SVGID_208_);}
	.st105{clip-path:url(#SVGID_210_);}
	.st106{clip-path:url(#SVGID_212_);}
	.st107{clip-path:url(#SVGID_214_);}
	.st108{clip-path:url(#SVGID_216_);}
	.st109{clip-path:url(#SVGID_218_);}
	.st110{clip-path:url(#SVGID_220_);}
	.st111{clip-path:url(#SVGID_222_);}
	.st112{clip-path:url(#SVGID_224_);}
	.st113{clip-path:url(#SVGID_226_);}
	.st114{clip-path:url(#SVGID_228_);}
	.st115{clip-path:url(#SVGID_230_);}
	.st116{clip-path:url(#SVGID_232_);}
	.st117{clip-path:url(#SVGID_234_);}
	.st118{clip-path:url(#SVGID_236_);}
	.st119{clip-path:url(#SVGID_238_);}
	.st120{clip-path:url(#SVGID_240_);}
	.st121{clip-path:url(#SVGID_242_);}
	.st122{clip-path:url(#SVGID_244_);}
	.st123{clip-path:url(#SVGID_246_);}
	.st124{clip-path:url(#SVGID_248_);}
	.st125{clip-path:url(#SVGID_250_);}
	.st126{clip-path:url(#SVGID_252_);}
	.st127{clip-path:url(#SVGID_254_);}
	.st128{clip-path:url(#SVGID_256_);}
	.st129{clip-path:url(#SVGID_258_);}
	.st130{clip-path:url(#SVGID_260_);}
	.st131{clip-path:url(#SVGID_262_);}
	.st132{clip-path:url(#SVGID_264_);}
	.st133{clip-path:url(#SVGID_266_);}
	.st134{clip-path:url(#SVGID_268_);}
	.st135{clip-path:url(#SVGID_270_);}
	.st136{clip-path:url(#SVGID_272_);}
	.st137{clip-path:url(#SVGID_274_);}
	.st138{clip-path:url(#SVGID_276_);}
	.st139{clip-path:url(#SVGID_278_);}
	.st140{clip-path:url(#SVGID_280_);}
	.st141{clip-path:url(#SVGID_282_);}
	.st142{clip-path:url(#SVGID_284_);}
	.st143{clip-path:url(#SVGID_286_);}
	.st144{clip-path:url(#SVGID_288_);}
	.st145{clip-path:url(#SVGID_290_);}
	.st146{clip-path:url(#SVGID_292_);}
	.st147{clip-path:url(#SVGID_294_);}
	.st148{clip-path:url(#SVGID_296_);}
	.st149{clip-path:url(#SVGID_298_);}
	.st150{clip-path:url(#SVGID_300_);}
	.st151{clip-path:url(#SVGID_302_);}
	.st152{clip-path:url(#SVGID_304_);}
	.st153{clip-path:url(#SVGID_306_);}
	.st154{clip-path:url(#SVGID_308_);}
	.st155{clip-path:url(#SVGID_310_);}
	.st156{clip-path:url(#SVGID_312_);}
	.st157{clip-path:url(#SVGID_314_);}
	.st158{clip-path:url(#SVGID_316_);}
	.st159{clip-path:url(#SVGID_318_);}
	.st160{clip-path:url(#SVGID_320_);}
	.st161{clip-path:url(#SVGID_322_);}
	.st162{clip-path:url(#SVGID_324_);}
	.st163{clip-path:url(#SVGID_326_);}
	.st164{clip-path:url(#SVGID_328_);}
	.st165{clip-path:url(#SVGID_330_);}
	.st166{clip-path:url(#SVGID_332_);}
	.st167{clip-path:url(#SVGID_334_);}
	.st168{clip-path:url(#SVGID_336_);}
	.st169{clip-path:url(#SVGID_338_);}
	.st170{clip-path:url(#SVGID_340_);}
	.st171{clip-path:url(#SVGID_342_);}
	.st172{clip-path:url(#SVGID_344_);}
	.st173{clip-path:url(#SVGID_346_);}
</style>
<g id="Group_436" transform="translate(0 91)">
	<g>
		<defs>
			<path id="SVGID_1_" d="M47.32-31.81c-1.74,0.01-3.38,0.83-4.43,2.21v5.82c1,1.37,2.57,2.18,4.26,2.21
				c2.8,0.05,5.11-2.19,5.16-4.99c0-0.05,0-0.09,0-0.14c0.08-2.75-2.08-5.04-4.82-5.12C47.43-31.81,47.38-31.81,47.32-31.81"/>
		</defs>
		<clipPath id="SVGID_2_">
			<use xlink:href="#SVGID_1_"  style="overflow:visible;"/>
		</clipPath>
		<g id="Group_390" transform="translate(15.392 -70.812)" class="st0">
			<g>
				<defs>
					<rect id="SVGID_3_" x="-56.34" y="-6955.4" width="1347.98" height="8689.46"/>
				</defs>
				<clipPath id="SVGID_4_">
					<use xlink:href="#SVGID_3_"  style="overflow:visible;"/>
				</clipPath>
				<g id="Group_389" transform="translate(-83.844 -6994.401)" class="st1">
					<path id="Path_487" class="st2" d="M104.76,7026.82h22.58v23.41h-22.58V7026.82z"/>
				</g>
			</g>
		</g>
	</g>
	<g>
		<defs>
			<path id="SVGID_5_" d="M52.22-52C38.57-52,27.5-40.93,27.5-27.28c0,0,0,0,0,0c0,13.65,11.07,24.72,24.72,24.72c0,0,0,0,0,0
				c13.65,0,24.72-11.07,24.72-24.72c0,0,0,0,0,0C76.94-40.93,65.87-52,52.22-52C52.22-52,52.22-52,52.22-52z M51.49-19.62
				c-1.19,0.67-2.53,1.02-3.9,1.02c-1.76,0.03-3.47-0.6-4.79-1.75v1.42h-3.04v-23.47h3.14v9.29c1.34-1.11,3.02-1.7,4.76-1.68
				c1.33-0.02,2.65,0.32,3.8,0.99c2.5,1.49,4.02,4.2,4,7.11C55.48-23.79,53.97-21.1,51.49-19.62L51.49-19.62z M63.55-17.6
				c0.14,1.52-0.21,3.05-0.99,4.36c-1.16,1.65-3.07,2.62-5.09,2.58c-0.62,0-1.25-0.08-1.85-0.23l0.66-2.88
				c0.38,0.09,0.77,0.13,1.16,0.13c0.92,0.01,1.79-0.39,2.38-1.09c0.5-0.83,0.71-1.81,0.59-2.78v-16.96h3.14V-17.6z M61.96-37.93
				c-1.11,0.02-2.03-0.87-2.05-1.99c0-0.02,0-0.04,0-0.06c-0.02-1.13,0.88-2.06,2.01-2.08c0.01,0,0.03,0,0.04,0
				c1.15,0,2.08,0.92,2.08,2.06c0,0.01,0,0.01,0,0.02c0,1.13-0.91,2.05-2.04,2.05C61.99-37.92,61.98-37.92,61.96-37.93z"/>
		</defs>
		<clipPath id="SVGID_6_">
			<use xlink:href="#SVGID_5_"  style="overflow:visible;"/>
		</clipPath>
		<g id="Group_392" transform="translate(0 -91)" class="st3">
			<g>
				<defs>
					<rect id="SVGID_7_" x="-40.95" y="-6935.21" width="1347.98" height="8689.46"/>
				</defs>
				<clipPath id="SVGID_8_">
					<use xlink:href="#SVGID_7_"  style="overflow:visible;"/>
				</clipPath>
				<g id="Group_391" transform="translate(-68.452 -6974.213)" class="st4">
					<path id="Path_490" class="st2" d="M89.37,7006.63h62.6v62.61h-62.6V7006.63z"/>
				</g>
			</g>
		</g>
	</g>
	<g>
		<defs>
			<path id="SVGID_9_" d="M128.81-29.74c-1.74,0.01-3.38,0.83-4.43,2.21v5.82c1,1.37,2.57,2.18,4.26,2.21
				c2.8,0.05,5.11-2.19,5.16-4.99c0-0.05,0-0.09,0-0.14c0.08-2.74-2.07-5.04-4.82-5.12C128.93-29.74,128.87-29.74,128.81-29.74"/>
		</defs>
		<clipPath id="SVGID_10_">
			<use xlink:href="#SVGID_9_"  style="overflow:visible;"/>
		</clipPath>
		<g id="Group_394" transform="translate(96.886 -68.737)" class="st5">
			<g>
				<defs>
					<rect id="SVGID_11_" x="-137.84" y="-6957.48" width="1347.98" height="8689.46"/>
				</defs>
				<clipPath id="SVGID_12_">
					<use xlink:href="#SVGID_11_"  style="overflow:visible;"/>
				</clipPath>
				<g id="Group_393" transform="translate(-165.338 -6996.476)" class="st6">
					<path id="Path_493" class="st2" d="M186.26,7028.89h22.58v23.41h-22.58V7028.89z"/>
				</g>
			</g>
		</g>
	</g>
	<g>
		<defs>
			<path id="SVGID_13_" d="M135.13-52c-13.65,0-24.72,11.07-24.72,24.72l0,0c0,13.65,11.07,24.72,24.72,24.72c0,0,0,0,0,0
				c13.65,0,24.72-11.07,24.72-24.72c0,0,0,0,0,0C159.85-40.93,148.78-52,135.13-52L135.13-52z M132.98-17.54
				c-1.19,0.67-2.53,1.02-3.9,1.02c-1.76,0.03-3.47-0.6-4.79-1.75v1.42h-3.04v-23.47h3.14v9.29c1.34-1.11,3.02-1.7,4.76-1.68
				c1.33-0.02,2.65,0.32,3.8,0.99c2.5,1.49,4.02,4.2,4,7.11C136.98-21.72,135.47-19.02,132.98-17.54L132.98-17.54z M150.66-29.57
				h-4.95v7.27c-0.08,0.69,0.08,1.4,0.46,1.98c0.57,0.56,1.35,0.86,2.15,0.83c0.58,0,1.16-0.07,1.72-0.2l0.63,2.84
				c-0.8,0.23-1.62,0.34-2.45,0.33c-1.66,0.08-3.28-0.59-4.4-1.82c-0.92-1.17-1.37-2.65-1.26-4.13v-7.11h-3.96v-2.81h3.96v-4.3h3.14
				v4.3h4.96L150.66-29.57z"/>
		</defs>
		<clipPath id="SVGID_14_">
			<use xlink:href="#SVGID_13_"  style="overflow:visible;"/>
		</clipPath>
		<g id="Group_396" transform="translate(82.907 -91)" class="st7">
			<g>
				<defs>
					<rect id="SVGID_15_" x="-123.86" y="-6935.21" width="1347.98" height="8689.46"/>
				</defs>
				<clipPath id="SVGID_16_">
					<use xlink:href="#SVGID_15_"  style="overflow:visible;"/>
				</clipPath>
				<g id="Group_395" transform="translate(-151.36 -6974.213)" class="st8">
					<path id="Path_496" class="st2" d="M172.28,7006.63h62.6v62.61h-62.6V7006.63z"/>
				</g>
			</g>
		</g>
	</g>
	<g>
		<defs>
			<path id="SVGID_17_" d="M468.78-52c-13.65,0-24.72,11.07-24.72,24.72l0,0c0,13.65,11.07,24.72,24.72,24.72c0,0,0,0,0,0
				c13.65,0,24.72-11.07,24.72-24.72c0,0,0,0,0,0C493.5-40.93,482.43-52,468.78-52L468.78-52z M467.86-20.43
				c0.1,1.75-0.21,3.49-0.92,5.09c-1.3,2.47-3.92,3.97-6.71,3.83c-2.97,0.14-5.81-1.21-7.57-3.6l2.31-2.15
				c1.12,1.74,3.05,2.79,5.12,2.78c1.48,0.1,2.91-0.58,3.77-1.78c0.67-1.22,0.97-2.61,0.86-4v-0.86c-1.3,1.12-2.97,1.72-4.69,1.69
				c-1.37,0-2.71-0.35-3.9-1.02c-2.49-1.48-4-4.18-3.97-7.07c-0.02-2.91,1.5-5.61,4-7.11c1.15-0.67,2.47-1.01,3.8-0.99
				c1.78-0.03,3.51,0.59,4.86,1.75v-1.42h3.04L467.86-20.43z M483.15-20.47c-1.19,0.67-2.53,1.02-3.9,1.02
				c-1.76,0.03-3.47-0.6-4.79-1.75v1.42h-3.04v-23.47h3.14v9.29c1.34-1.11,3.02-1.7,4.76-1.68c1.33-0.02,2.65,0.32,3.8,0.99
				c2.5,1.49,4.02,4.2,4,7.11C487.15-24.64,485.64-21.95,483.15-20.47L483.15-20.47z"/>
		</defs>
		<clipPath id="SVGID_18_">
			<use xlink:href="#SVGID_17_"  style="overflow:visible;"/>
		</clipPath>
		<g id="Group_398" transform="translate(416.559 -91)" class="st9">
			<g>
				<defs>
					<rect id="SVGID_19_" x="-457.51" y="-6935.21" width="1347.98" height="8689.46"/>
				</defs>
				<clipPath id="SVGID_20_">
					<use xlink:href="#SVGID_19_"  style="overflow:visible;"/>
				</clipPath>
				<g id="Group_397" transform="translate(-485.011 -6974.213)" class="st10">
					<path id="Path_499" class="st2" d="M505.93,7006.63h62.6v62.61h-62.6V7006.63z"/>
				</g>
			</g>
		</g>
	</g>
	<g>
		<defs>
			<path id="SVGID_21_" d="M478.99-32.66c-1.74,0.01-3.38,0.83-4.43,2.21v5.82c1,1.37,2.57,2.18,4.26,2.21
				c2.8,0.05,5.11-2.19,5.16-4.99c0-0.05,0-0.09,0-0.14c0.08-2.74-2.07-5.04-4.82-5.12C479.1-32.66,479.04-32.66,478.99-32.66"/>
		</defs>
		<clipPath id="SVGID_22_">
			<use xlink:href="#SVGID_21_"  style="overflow:visible;"/>
		</clipPath>
		<g id="Group_400" transform="translate(447.057 -71.662)" class="st11">
			<g>
				<defs>
					<rect id="SVGID_23_" x="-488.01" y="-6954.55" width="1347.98" height="8689.46"/>
				</defs>
				<clipPath id="SVGID_24_">
					<use xlink:href="#SVGID_23_"  style="overflow:visible;"/>
				</clipPath>
				<g id="Group_399" transform="translate(-515.509 -6993.551)" class="st12">
					<path id="Path_502" class="st2" d="M536.43,7025.97h22.58v23.41h-22.58V7025.97z"/>
				</g>
			</g>
		</g>
	</g>
	<g>
		<defs>
			<path id="SVGID_25_" d="M460.29-32.66c-2.75-0.01-4.98,2.21-4.99,4.95c0,0.06,0,0.11,0,0.17c-0.03,2.8,2.22,5.09,5.02,5.12
				c0.05,0,0.09,0,0.14,0c1.69-0.03,3.27-0.85,4.26-2.21v-5.82C463.67-31.84,462.03-32.66,460.29-32.66"/>
		</defs>
		<clipPath id="SVGID_26_">
			<use xlink:href="#SVGID_25_"  style="overflow:visible;"/>
		</clipPath>
		<g id="Group_402" transform="translate(427.803 -71.662)" class="st13">
			<g>
				<defs>
					<rect id="SVGID_27_" x="-468.76" y="-6954.55" width="1347.98" height="8689.46"/>
				</defs>
				<clipPath id="SVGID_28_">
					<use xlink:href="#SVGID_27_"  style="overflow:visible;"/>
				</clipPath>
				<g id="Group_401" transform="translate(-496.255 -6993.551)" class="st14">
					<path id="Path_505" class="st2" d="M517.17,7025.97h22.58v23.41h-22.58V7025.97z"/>
				</g>
			</g>
		</g>
	</g>
	<g>
		<defs>
			<path id="SVGID_29_" d="M45.24,37.43c-1.74,0.01-3.38,0.83-4.43,2.21v5.82c1,1.37,2.57,2.18,4.26,2.21
				c2.8,0.05,5.11-2.19,5.16-4.99c0-0.05,0-0.09,0-0.14c0.08-2.74-2.07-5.04-4.82-5.12C45.36,37.43,45.3,37.43,45.24,37.43"/>
		</defs>
		<clipPath id="SVGID_30_">
			<use xlink:href="#SVGID_29_"  style="overflow:visible;"/>
		</clipPath>
		<g id="Group_404" transform="translate(13.316 -1.573)" class="st15">
			<g>
				<defs>
					<rect id="SVGID_31_" x="-54.27" y="-7024.64" width="1347.98" height="8689.46"/>
				</defs>
				<clipPath id="SVGID_32_">
					<use xlink:href="#SVGID_31_"  style="overflow:visible;"/>
				</clipPath>
				<g id="Group_403" transform="translate(-81.769 -7063.64)" class="st16">
					<path id="Path_508" class="st2" d="M102.69,7096.06h22.58v23.41h-22.58V7096.06z"/>
				</g>
			</g>
		</g>
	</g>
	<g>
		<defs>
			<path id="SVGID_33_" d="M63.69,37.43c-1.74,0.01-3.38,0.83-4.43,2.21v5.82c1,1.36,2.57,2.18,4.26,2.21
				c2.8,0.05,5.11-2.19,5.16-4.99c0-0.05,0-0.09,0-0.14c0.08-2.74-2.07-5.04-4.82-5.12C63.81,37.43,63.75,37.43,63.69,37.43"/>
		</defs>
		<clipPath id="SVGID_34_">
			<use xlink:href="#SVGID_33_"  style="overflow:visible;"/>
		</clipPath>
		<g id="Group_406" transform="translate(31.764 -1.573)" class="st17">
			<g>
				<defs>
					<rect id="SVGID_35_" x="-72.72" y="-7024.64" width="1347.98" height="8689.46"/>
				</defs>
				<clipPath id="SVGID_36_">
					<use xlink:href="#SVGID_35_"  style="overflow:visible;"/>
				</clipPath>
				<g id="Group_405" transform="translate(-100.216 -7063.64)" class="st18">
					<path id="Path_511" class="st2" d="M121.13,7096.06h22.58v23.41h-22.58V7096.06z"/>
				</g>
			</g>
		</g>
	</g>
	<g>
		<defs>
			<rect id="SVGID_37_" x="27.5" y="18.34" width="49.44" height="49.44"/>
		</defs>
		<clipPath id="SVGID_38_">
			<use xlink:href="#SVGID_37_"  style="overflow:visible;"/>
		</clipPath>
		<g id="Group_411" transform="translate(0 -20.663)" class="st19">
			<g>
				<defs>
					<rect id="SVGID_39_" x="-40.95" y="-7005.55" width="1347.98" height="8689.46"/>
				</defs>
				<clipPath id="SVGID_40_">
					<use xlink:href="#SVGID_39_"  style="overflow:visible;"/>
				</clipPath>
				<g id="Group_410" transform="translate(-68.453 -7044.55)" class="st20">
					<g>
						<defs>
							<rect id="SVGID_41_" x="95.95" y="7082.98" width="50.02" height="50.02"/>
						</defs>
						<clipPath id="SVGID_42_">
							<use xlink:href="#SVGID_41_"  style="overflow:visible;"/>
						</clipPath>
						<g id="Group_409" transform="translate(68.452 7043.981)" class="st21">
							<g>
								<defs>
									<path id="SVGID_43_" d="M52.22,39.57c-13.65,0-24.72,11.07-24.72,24.72c0,0,0,0,0,0c0,13.65,11.07,24.72,24.72,24.72
										c0,0,0,0,0,0c13.65,0,24.72-11.07,24.72-24.72c0,0,0,0,0,0C76.94,50.64,65.87,39.57,52.22,39.57L52.22,39.57 M49.41,70.85
										c-1.19,0.67-2.53,1.02-3.9,1.02c-1.72,0.03-3.39-0.57-4.69-1.69v9.29h-3.14V56.01h3.04v1.42c1.35-1.16,3.08-1.78,4.86-1.75
										c1.33-0.02,2.65,0.33,3.8,0.99c2.5,1.49,4.02,4.19,4,7.1C53.41,66.67,51.9,69.37,49.41,70.85 M67.86,70.85
										c-1.19,0.67-2.53,1.02-3.9,1.03c-1.76,0.03-3.47-0.59-4.79-1.75v1.42h-3.04V48.08h3.14v9.29c1.34-1.11,3.02-1.7,4.76-1.69
										c1.33-0.02,2.65,0.33,3.8,0.99c2.5,1.49,4.02,4.19,4,7.1C71.86,66.67,70.35,69.37,67.86,70.85"/>
								</defs>
								<clipPath id="SVGID_44_">
									<use xlink:href="#SVGID_43_"  style="overflow:visible;"/>
								</clipPath>
								<g id="Group_408" transform="translate(0.001 0.569)" class="st22">
									<g>
										<defs>
											<rect id="SVGID_45_" x="27.5" y="38.43" width="50.02" height="50.02"/>
										</defs>
										<clipPath id="SVGID_46_">
											<use xlink:href="#SVGID_45_"  style="overflow:visible;"/>
										</clipPath>
										<g id="Group_407" transform="translate(-0.001 -0.569)" class="st23">
											<path id="Path_514" class="st2" d="M20.92,32.99h62.6v62.61h-62.6V32.99z"/>
										</g>
									</g>
								</g>
							</g>
						</g>
					</g>
				</g>
			</g>
		</g>
	</g>
	<g>
		<defs>
			<rect id="SVGID_47_" x="110.41" y="18.34" width="49.44" height="49.44"/>
		</defs>
		<clipPath id="SVGID_48_">
			<use xlink:href="#SVGID_47_"  style="overflow:visible;"/>
		</clipPath>
		<g id="Group_416" transform="translate(82.907 -20.663)" class="st24">
			<g>
				<defs>
					<rect id="SVGID_49_" x="-123.86" y="-7005.55" width="1347.98" height="8689.46"/>
				</defs>
				<clipPath id="SVGID_50_">
					<use xlink:href="#SVGID_49_"  style="overflow:visible;"/>
				</clipPath>
				<g id="Group_415" transform="translate(-151.36 -7044.55)" class="st25">
					<g>
						<defs>
							<rect id="SVGID_51_" x="177.57" y="7082.98" width="51.34" height="50.02"/>
						</defs>
						<clipPath id="SVGID_52_">
							<use xlink:href="#SVGID_51_"  style="overflow:visible;"/>
						</clipPath>
						<g id="Group_414" transform="translate(150.068 7043.981)" class="st26">
							<g>
								<defs>
									<path id="SVGID_53_" d="M53.51,39.57c-13.65,0-24.72,11.07-24.72,24.72c0,0,0,0,0,0c0,13.65,11.07,24.72,24.72,24.72
										c0,0,0,0,0,0c13.65,0,24.72-11.07,24.72-24.72c0,0,0,0,0,0C78.23,50.64,67.16,39.57,53.51,39.57L53.51,39.57z M48.21,61.35
										v10.28h-3.14V56.09h3.04v1.78c1.13-1.4,2.86-2.19,4.66-2.11c0.41,0,0.82,0.04,1.22,0.1l-0.36,3.01
										c-0.4-0.1-0.81-0.14-1.22-0.13C50.66,58.84,49.08,59.82,48.21,61.35L48.21,61.35z M61.27,72.95
										c0.14,1.52-0.21,3.05-0.99,4.36c-1.16,1.65-3.07,2.62-5.09,2.58c-0.62,0-1.25-0.07-1.85-0.23L54,76.78
										c0.38,0.09,0.77,0.13,1.16,0.13c0.92,0.01,1.79-0.39,2.38-1.09c0.5-0.83,0.71-1.81,0.6-2.78V56.09h3.14L61.27,72.95z
										 M59.68,52.62c-1.11,0.02-2.03-0.87-2.05-1.99c0-0.02,0-0.04,0-0.06c-0.02-1.13,0.88-2.06,2.01-2.08c0.01,0,0.03,0,0.04,0
										c1.14-0.01,2.08,0.92,2.08,2.06c0,0.01,0,0.01,0,0.02c0,1.13-0.91,2.05-2.04,2.05C59.71,52.62,59.69,52.62,59.68,52.62z"/>
								</defs>
								<clipPath id="SVGID_54_">
									<use xlink:href="#SVGID_53_"  style="overflow:visible;"/>
								</clipPath>
								<g id="Group_413" transform="translate(1.292 0.569)" class="st27">
									<g>
										<defs>
											<rect id="SVGID_55_" x="26.21" y="38.43" width="51.34" height="50.02"/>
										</defs>
										<clipPath id="SVGID_56_">
											<use xlink:href="#SVGID_55_"  style="overflow:visible;"/>
										</clipPath>
										<g id="Group_412" transform="translate(-1.292 -0.569)" class="st28">
											<path id="Path_519" class="st2" d="M22.21,32.99h62.6v62.61h-62.6L22.21,32.99z"/>
										</g>
									</g>
								</g>
							</g>
						</g>
					</g>
				</g>
			</g>
		</g>
	</g>
	<g>
		<defs>
			<path id="SVGID_57_" d="M225.06,38.29c-2.75-0.01-4.98,2.21-4.99,4.95c0,0.06,0,0.11,0,0.17c-0.03,2.8,2.22,5.09,5.02,5.12
				c0.05,0,0.09,0,0.14,0c1.69-0.03,3.27-0.85,4.26-2.21V40.5C228.44,39.11,226.8,38.3,225.06,38.29"/>
		</defs>
		<clipPath id="SVGID_58_">
			<use xlink:href="#SVGID_57_"  style="overflow:visible;"/>
		</clipPath>
		<g id="Group_418" transform="translate(192.572 -0.713)" class="st29">
			<g>
				<defs>
					<rect id="SVGID_59_" x="-233.52" y="-7025.5" width="1347.98" height="8689.46"/>
				</defs>
				<clipPath id="SVGID_60_">
					<use xlink:href="#SVGID_59_"  style="overflow:visible;"/>
				</clipPath>
				<g id="Group_417" transform="translate(-261.024 -7064.5)" class="st30">
					<path id="Path_524" class="st2" d="M281.94,7096.92h22.58v23.41h-22.58V7096.92z"/>
				</g>
			</g>
		</g>
	</g>
	<g>
		<defs>
			<rect id="SVGID_61_" x="193.31" y="18.34" width="49.44" height="49.44"/>
		</defs>
		<clipPath id="SVGID_62_">
			<use xlink:href="#SVGID_61_"  style="overflow:visible;"/>
		</clipPath>
		<g id="Group_423" transform="translate(165.814 -20.663)" class="st31">
			<g>
				<defs>
					<rect id="SVGID_63_" x="-206.77" y="-7005.55" width="1347.98" height="8689.46"/>
				</defs>
				<clipPath id="SVGID_64_">
					<use xlink:href="#SVGID_63_"  style="overflow:visible;"/>
				</clipPath>
				<g id="Group_422" transform="translate(-234.267 -7044.55)" class="st32">
					<g>
						<defs>
							<rect id="SVGID_65_" x="260.5" y="7082.98" width="51.34" height="50.02"/>
						</defs>
						<clipPath id="SVGID_66_">
							<use xlink:href="#SVGID_65_"  style="overflow:visible;"/>
						</clipPath>
						<g id="Group_421" transform="translate(233 7043.981)" class="st33">
							<g>
								<defs>
									<path id="SVGID_67_" d="M53.49,39.57c-13.65,0-24.72,11.07-24.72,24.72c0,13.65,11.07,24.72,24.72,24.72l0,0
										c13.65,0,24.72-11.07,24.72-24.72C78.2,50.64,67.14,39.57,53.49,39.57L53.49,39.57L53.49,39.57z M50.2,59.65
										c-0.4-0.1-0.81-0.15-1.22-0.13c-1.75,0.11-3.33,1.09-4.2,2.61v10.28h-3.14V56.88h3.04v1.78c1.13-1.4,2.86-2.19,4.66-2.11
										c0.41,0,0.82,0.04,1.22,0.1L50.2,59.65z M68.08,72.41h-3.04v-1.42c-1.33,1.16-3.03,1.78-4.79,1.75
										c-1.37,0-2.71-0.35-3.9-1.02c-2.49-1.48-4-4.18-3.96-7.07c-0.02-2.91,1.5-5.61,4-7.11c1.15-0.67,2.47-1.01,3.8-0.99
										c1.78-0.03,3.51,0.59,4.86,1.75v-1.42h3.04L68.08,72.41z"/>
								</defs>
								<clipPath id="SVGID_68_">
									<use xlink:href="#SVGID_67_"  style="overflow:visible;"/>
								</clipPath>
								<g id="Group_420" transform="translate(1.266 0.569)" class="st34">
									<g>
										<defs>
											<rect id="SVGID_69_" x="26.23" y="38.43" width="51.34" height="50.02"/>
										</defs>
										<clipPath id="SVGID_70_">
											<use xlink:href="#SVGID_69_"  style="overflow:visible;"/>
										</clipPath>
										<g id="Group_419" transform="translate(-1.266 -0.569)" class="st35">
											<path id="Path_527" class="st2" d="M22.18,32.99h62.6v62.61h-62.6V32.99z"/>
										</g>
									</g>
								</g>
							</g>
						</g>
					</g>
				</g>
			</g>
		</g>
	</g>
	<g>
		<defs>
			<path id="SVGID_71_" d="M226.33-30.66c-2.6-0.01-4.71,2.09-4.73,4.69c0,0.05,0,0.11,0,0.16c-0.03,2.65,2.1,4.82,4.75,4.85
				c0.04,0,0.09,0,0.13,0c1.6-0.03,3.09-0.81,4.04-2.1v-5.5C229.53-29.88,227.98-30.66,226.33-30.66"/>
		</defs>
		<clipPath id="SVGID_72_">
			<use xlink:href="#SVGID_71_"  style="overflow:visible;"/>
		</clipPath>
		<g id="Group_425" transform="translate(194.108 -69.658)" class="st36">
			<g>
				<defs>
					<rect id="SVGID_73_" x="-235.06" y="-6956.56" width="1347.98" height="8689.46"/>
				</defs>
				<clipPath id="SVGID_74_">
					<use xlink:href="#SVGID_73_"  style="overflow:visible;"/>
				</clipPath>
				<g id="Group_424" transform="translate(-262.56 -6995.555)" class="st37">
					<path id="Path_532" class="st2" d="M283.48,7027.97h22.08v22.86h-22.08V7027.97z"/>
				</g>
			</g>
		</g>
	</g>
	<g>
		<defs>
			<path id="SVGID_75_" d="M218.03-52c-13.65,0-24.72,11.07-24.72,24.72l0,0c0,13.65,11.07,24.72,24.72,24.72c0,0,0,0,0,0
				c13.65,0,24.72-11.07,24.72-24.72C242.75-40.93,231.69-52,218.03-52z M209.91-18.15c-4.18,0.16-7.69-3.1-7.85-7.27
				c0-0.13-0.01-0.26,0-0.39c-0.1-4.13,3.17-7.56,7.3-7.66c0.12,0,0.24,0,0.36,0c2.47,0,4.8,1.19,6.26,3.19l-2.19,1.85
				c-0.91-1.36-2.43-2.18-4.07-2.22c-2.58-0.02-4.68,2.06-4.7,4.63c0,0.07,0,0.14,0,0.22c-0.1,2.58,1.91,4.75,4.49,4.85
				c0.13,0.01,0.26,0,0.39,0c1.71-0.02,3.3-0.87,4.26-2.28l2.28,1.66C214.99-19.41,212.53-18.12,209.91-18.15L209.91-18.15z
				 M233.49-18.46h-2.88v-1.34c-1.26,1.09-2.87,1.68-4.54,1.66c-1.29,0-2.56-0.33-3.69-0.97c-2.35-1.4-3.78-3.95-3.75-6.69
				c-0.02-2.75,1.42-5.31,3.79-6.72c1.09-0.63,2.34-0.96,3.6-0.94c1.68-0.03,3.32,0.56,4.6,1.66v-1.35h2.88L233.49-18.46z"/>
		</defs>
		<clipPath id="SVGID_76_">
			<use xlink:href="#SVGID_75_"  style="overflow:visible;"/>
		</clipPath>
		<g id="Group_427" transform="translate(165.814 -91)" class="st38">
			<g>
				<defs>
					<rect id="SVGID_77_" x="-206.77" y="-6935.21" width="1347.98" height="8689.46"/>
				</defs>
				<clipPath id="SVGID_78_">
					<use xlink:href="#SVGID_77_"  style="overflow:visible;"/>
				</clipPath>
				<g id="Group_426" transform="translate(-234.267 -6974.213)" class="st39">
					<path id="Path_535" class="st2" d="M255.18,7006.63h62.6v62.61h-62.6V7006.63z"/>
				</g>
			</g>
		</g>
	</g>
	<g>
		<defs>
			<path id="SVGID_79_" d="M292.74-31.05c-1.94,0-3.64,1.31-4.13,3.19h8.01C296.2-29.68,294.61-30.99,292.74-31.05"/>
		</defs>
		<clipPath id="SVGID_80_">
			<use xlink:href="#SVGID_79_"  style="overflow:visible;"/>
		</clipPath>
		<g id="Group_429" transform="translate(261.113 -70.05)" class="st40">
			<g>
				<defs>
					<rect id="SVGID_81_" x="-302.07" y="-6956.16" width="1347.98" height="8689.46"/>
				</defs>
				<clipPath id="SVGID_82_">
					<use xlink:href="#SVGID_81_"  style="overflow:visible;"/>
				</clipPath>
				<g id="Group_428" transform="translate(-329.565 -6995.163)" class="st41">
					<path id="Path_538" class="st2" d="M350.48,7027.58h21.17v16.35h-21.17V7027.58z"/>
				</g>
			</g>
		</g>
	</g>
	<g>
		<defs>
			<path id="SVGID_83_" d="M300.94-52c-13.65,0-24.72,11.07-24.72,24.72l0,0c0,13.65,11.07,24.72,24.72,24.72c0,0,0,0,0,0
				c13.65,0,24.72-11.07,24.72-24.72c0,0,0,0,0,0C325.66-40.93,314.59-52,300.94-52L300.94-52 M299.68-25.36h-11.32
				c0.16,2.51,2.24,4.46,4.75,4.44c1.64,0.02,3.2-0.72,4.22-2l1.94,1.84c-1.53,1.83-3.81,2.84-6.19,2.75
				c-4.12,0.07-7.53-3.21-7.6-7.33c0-0.11,0-0.22,0-0.33c0-4.41,3-7.66,7.16-7.66c4.1,0,7.07,3.32,7.07,7.66
				C299.72-25.77,299.71-25.57,299.68-25.36 M310.39-18.32c-4.18,0.16-7.69-3.1-7.85-7.27c0-0.13-0.01-0.26,0-0.39
				c-0.1-4.13,3.17-7.56,7.3-7.66c0.12,0,0.24,0,0.36,0c2.47,0,4.8,1.19,6.26,3.19l-2.19,1.84c-0.91-1.36-2.43-2.18-4.07-2.22
				c-2.58-0.02-4.68,2.06-4.7,4.63c0,0.07,0,0.14,0,0.21c-0.1,2.58,1.91,4.75,4.49,4.85c0.13,0.01,0.26,0,0.39,0
				c1.71-0.02,3.29-0.87,4.25-2.28l2.28,1.66C315.46-19.59,313-18.29,310.39-18.32"/>
		</defs>
		<clipPath id="SVGID_84_">
			<use xlink:href="#SVGID_83_"  style="overflow:visible;"/>
		</clipPath>
		<g id="Group_431" transform="translate(248.721 -91)" class="st42">
			<g>
				<defs>
					<rect id="SVGID_85_" x="-289.67" y="-6935.21" width="1347.98" height="8689.46"/>
				</defs>
				<clipPath id="SVGID_86_">
					<use xlink:href="#SVGID_85_"  style="overflow:visible;"/>
				</clipPath>
				<g id="Group_430" transform="translate(-317.174 -6974.213)" class="st43">
					<path id="Path_541" class="st2" d="M338.09,7006.63h62.6v62.61h-62.6V7006.63z"/>
				</g>
			</g>
		</g>
	</g>
	<g>
		<defs>
			<path id="SVGID_87_" d="M390.49-29.79c-2.56,0-4.63,2.07-4.63,4.63c0,0.07,0,0.14,0.01,0.22c-0.12,2.56,1.86,4.72,4.41,4.84
				c0.07,0,0.14,0.01,0.22,0.01c2.56,0,4.63-2.07,4.63-4.63c0-0.07,0-0.14-0.01-0.22c0.12-2.56-1.86-4.72-4.41-4.84
				C390.63-29.79,390.56-29.79,390.49-29.79"/>
		</defs>
		<clipPath id="SVGID_88_">
			<use xlink:href="#SVGID_87_"  style="overflow:visible;"/>
		</clipPath>
		<g id="Group_433" transform="translate(358.36 -68.79)" class="st44">
			<g>
				<defs>
					<rect id="SVGID_89_" x="-399.31" y="-6957.42" width="1347.98" height="8689.46"/>
				</defs>
				<clipPath id="SVGID_90_">
					<use xlink:href="#SVGID_89_"  style="overflow:visible;"/>
				</clipPath>
				<g id="Group_432" transform="translate(-426.812 -6996.423)" class="st45">
					<path id="Path_544" class="st2" d="M447.73,7028.84h22.42v22.86h-22.42V7028.84z"/>
				</g>
			</g>
		</g>
	</g>
	<g>
		<defs>
			<path id="SVGID_91_" d="M383.85-52c-13.65,0-24.72,11.07-24.72,24.72l0,0c0,13.65,11.07,24.72,24.72,24.72c0,0,0,0,0,0
				c13.65,0,24.72-11.07,24.72-24.72c0,0,0,0,0,0C408.57-40.93,397.5-52,383.85-52L383.85-52z M381.63-32.29v2.66h-4.54v12.04h-2.97
				v-12.04h-3.44v-2.66h3.44v-1.25c-0.13-1.44,0.2-2.89,0.94-4.13c1.1-1.56,2.91-2.48,4.82-2.44c0.59,0,1.18,0.07,1.75,0.22
				l-0.62,2.72c-0.36-0.08-0.73-0.13-1.1-0.12c-0.87-0.01-1.69,0.37-2.25,1.03c-0.47,0.79-0.67,1.71-0.56,2.63v1.34H381.63z
				 M390.49-17.28c-4.11,0.08-7.52-3.18-7.6-7.3c0-0.12,0-0.25,0-0.37c-0.12-4.11,3.12-7.54,7.23-7.66c0.12,0,0.25,0,0.37,0
				c4.11-0.09,7.52,3.18,7.6,7.29c0,0.12,0,0.25,0,0.37c0.12,4.11-3.12,7.54-7.23,7.66C390.73-17.28,390.61-17.28,390.49-17.28z"/>
		</defs>
		<clipPath id="SVGID_92_">
			<use xlink:href="#SVGID_91_"  style="overflow:visible;"/>
		</clipPath>
		<g id="Group_435" transform="translate(331.628 -91)" class="st46">
			<g>
				<defs>
					<rect id="SVGID_93_" x="-372.58" y="-6935.21" width="1347.98" height="8689.46"/>
				</defs>
				<clipPath id="SVGID_94_">
					<use xlink:href="#SVGID_93_"  style="overflow:visible;"/>
				</clipPath>
				<g id="Group_434" transform="translate(-400.081 -6974.213)" class="st47">
					<path id="Path_547" class="st2" d="M421,7006.63h62.6v62.61H421V7006.63z"/>
				</g>
			</g>
		</g>
	</g>
</g>
<g id="Group_563" transform="translate(0 346)">
	<g>
		<defs>
			<path id="SVGID_95_" d="M51.72-111.56c-13.41-0.06-24.25-10.96-24.22-24.37c-0.03-13.41,10.81-24.31,24.22-24.37
				c13.41,0.06,24.24,10.96,24.22,24.37C75.96-122.52,65.13-111.62,51.72-111.56 M51.72-157.75c-12.01,0.05-21.71,9.81-21.69,21.82
				c-0.02,12.01,9.68,21.77,21.69,21.82c12.01-0.05,21.71-9.81,21.68-21.82C73.42-147.94,63.72-157.7,51.72-157.75"/>
		</defs>
		<clipPath id="SVGID_96_">
			<use xlink:href="#SVGID_95_"  style="overflow:visible;"/>
		</clipPath>
		<g id="Group_438" transform="translate(0 -199.297)" class="st48">
			<g>
				<defs>
					<rect id="SVGID_97_" x="-40.95" y="-7110.99" width="1347.98" height="8689.46"/>
				</defs>
				<clipPath id="SVGID_98_">
					<use xlink:href="#SVGID_97_"  style="overflow:visible;"/>
				</clipPath>
				<g id="Group_437" transform="translate(-68.452 -7149.994)" class="st49">
					<path id="Path_551" class="st2" d="M89.37,7182.41h61.6v61.9h-61.6V7182.41z"/>
				</g>
			</g>
		</g>
	</g>
	<g>
		<defs>
			<path id="SVGID_99_" d="M49.65-128.62c-1.23,1.08-2.81,1.66-4.45,1.64c-1.27,0-2.52-0.33-3.62-0.96
				c-2.31-1.39-3.72-3.91-3.68-6.61c-0.02-2.71,1.39-5.24,3.71-6.64c1.07-0.62,2.29-0.94,3.53-0.93c1.65-0.03,3.26,0.56,4.51,1.64
				v-1.33h2.82v14.51h-2.82V-128.62z M49.56-137.26c-0.97-1.29-2.49-2.06-4.11-2.07c-2.56,0-4.63,2.07-4.63,4.63
				c0,0.05,0,0.11,0,0.16c-0.03,2.61,2.05,4.75,4.66,4.78c0.04,0,0.08,0,0.12,0c1.57-0.03,3.04-0.8,3.96-2.07L49.56-137.26z"/>
		</defs>
		<clipPath id="SVGID_100_">
			<use xlink:href="#SVGID_99_"  style="overflow:visible;"/>
		</clipPath>
		<g id="Group_440" transform="translate(10.401 -181.11)" class="st50">
			<g>
				<defs>
					<rect id="SVGID_101_" x="-51.35" y="-7129.18" width="1347.98" height="8689.46"/>
				</defs>
				<clipPath id="SVGID_102_">
					<use xlink:href="#SVGID_101_"  style="overflow:visible;"/>
				</clipPath>
				<g id="Group_439" transform="translate(-78.853 -7168.18)" class="st51">
					<path id="Path_554" class="st2" d="M99.77,7200.6h27.74v28.29H99.77V7200.6z"/>
				</g>
			</g>
		</g>
	</g>
	<g>
		<defs>
			<path id="SVGID_103_" d="M63.83-139.21c-0.37-0.09-0.75-0.14-1.14-0.12c-1.63,0.1-3.1,1.02-3.9,2.44v9.6h-2.91v-14.51h2.82v1.67
				c1.05-1.31,2.65-2.04,4.33-1.98c0.38,0,0.76,0.03,1.13,0.09L63.83-139.21z"/>
		</defs>
		<clipPath id="SVGID_104_">
			<use xlink:href="#SVGID_103_"  style="overflow:visible;"/>
		</clipPath>
		<g id="Group_442" transform="translate(28.384 -181.11)" class="st52">
			<g>
				<defs>
					<rect id="SVGID_105_" x="-69.34" y="-7129.18" width="1347.98" height="8689.46"/>
				</defs>
				<clipPath id="SVGID_106_">
					<use xlink:href="#SVGID_105_"  style="overflow:visible;"/>
				</clipPath>
				<g id="Group_441" transform="translate(-96.836 -7168.18)" class="st53">
					<path id="Path_557" class="st2" d="M117.75,7200.6h21.45v27.98h-21.45V7200.6z"/>
				</g>
			</g>
		</g>
	</g>
	<g>
		<defs>
			<path id="SVGID_107_" d="M135.14-111.56c-13.41-0.06-24.25-10.96-24.22-24.37c-0.03-13.41,10.81-24.31,24.22-24.37
				c13.41,0.06,24.24,10.96,24.22,24.37C159.38-122.52,148.55-111.62,135.14-111.56 M135.14-157.75
				c-12.01,0.05-21.71,9.81-21.69,21.82c-0.02,12.01,9.68,21.77,21.69,21.82c12.01-0.05,21.71-9.81,21.69-21.82
				C156.85-147.94,147.14-157.7,135.14-157.75"/>
		</defs>
		<clipPath id="SVGID_108_">
			<use xlink:href="#SVGID_107_"  style="overflow:visible;"/>
		</clipPath>
		<g id="Group_444" transform="translate(83.419 -199.297)" class="st54">
			<g>
				<defs>
					<rect id="SVGID_109_" x="-124.37" y="-7110.99" width="1347.98" height="8689.46"/>
				</defs>
				<clipPath id="SVGID_110_">
					<use xlink:href="#SVGID_109_"  style="overflow:visible;"/>
				</clipPath>
				<g id="Group_443" transform="translate(-151.871 -7149.994)" class="st55">
					<path id="Path_560" class="st2" d="M172.79,7182.41h61.6v61.9h-61.6V7182.41z"/>
				</g>
			</g>
		</g>
	</g>
	<g>
		<defs>
			<path id="SVGID_111_" d="M132.06-128.79c-1.23,1.08-2.82,1.66-4.45,1.64c-1.27,0-2.52-0.33-3.62-0.96
				c-2.31-1.39-3.72-3.91-3.68-6.61c-0.02-2.71,1.39-5.24,3.71-6.64c1.07-0.62,2.29-0.94,3.53-0.93c1.65-0.03,3.26,0.56,4.51,1.64
				v-1.33h2.82v14.51h-2.82V-128.79z M131.97-137.43c-0.97-1.29-2.49-2.06-4.11-2.07c-2.56,0-4.63,2.07-4.63,4.63
				c0,0.05,0,0.11,0,0.16c-0.03,2.61,2.05,4.75,4.66,4.79c0.04,0,0.08,0,0.13,0c1.57-0.03,3.04-0.8,3.96-2.07L131.97-137.43z"/>
		</defs>
		<clipPath id="SVGID_112_">
			<use xlink:href="#SVGID_111_"  style="overflow:visible;"/>
		</clipPath>
		<g id="Group_446" transform="translate(92.807 -181.28)" class="st56">
			<g>
				<defs>
					<rect id="SVGID_113_" x="-133.76" y="-7129.01" width="1347.98" height="8689.46"/>
				</defs>
				<clipPath id="SVGID_114_">
					<use xlink:href="#SVGID_113_"  style="overflow:visible;"/>
				</clipPath>
				<g id="Group_445" transform="translate(-161.259 -7168.011)" class="st57">
					<path id="Path_563" class="st2" d="M182.18,7200.43h27.74v28.29h-27.74V7200.43z"/>
				</g>
			</g>
		</g>
	</g>
	<g>
		<defs>
			<path id="SVGID_115_" d="M139.18-131.32c1.2,1,2.7,1.56,4.26,1.61c1.26,0,2.52-0.68,2.52-1.82c0-1.67-2.39-1.76-4.51-2.47
				c-1.75-0.59-3.32-1.7-3.32-3.74c0-3.12,2.76-4.54,5.34-4.54c1.73-0.05,3.43,0.51,4.79,1.6l-1.5,2.1
				c-0.88-0.71-1.97-1.12-3.1-1.14c-1.41,0-2.61,0.68-2.61,1.82c0,0.99,1.14,1.33,2.58,1.7c2.27,0.59,5.25,1.61,5.25,4.6
				c0,2.75-2.55,4.45-5.37,4.45c-2.12,0.04-4.18-0.67-5.83-2.01L139.18-131.32z"/>
		</defs>
		<clipPath id="SVGID_116_">
			<use xlink:href="#SVGID_115_"  style="overflow:visible;"/>
		</clipPath>
		<g id="Group_448" transform="translate(110.177 -181.279)" class="st58">
			<g>
				<defs>
					<rect id="SVGID_117_" x="-151.13" y="-7129.01" width="1347.98" height="8689.46"/>
				</defs>
				<clipPath id="SVGID_118_">
					<use xlink:href="#SVGID_117_"  style="overflow:visible;"/>
				</clipPath>
				<g id="Group_447" transform="translate(-178.629 -7168.011)" class="st59">
					<path id="Path_566" class="st2" d="M199.55,7200.43h24.36v28.29h-24.36V7200.43z"/>
				</g>
			</g>
		</g>
	</g>
	<g>
		<defs>
			<path id="SVGID_119_" d="M218.55-111.56c-13.41-0.06-24.25-10.96-24.22-24.37c-0.03-13.41,10.81-24.31,24.22-24.37
				c13.41,0.06,24.24,10.96,24.22,24.37C242.8-122.52,231.97-111.62,218.55-111.56 M218.55-157.75
				c-12.01,0.05-21.71,9.81-21.69,21.82c-0.02,12.01,9.68,21.77,21.69,21.82c12.01-0.05,21.71-9.81,21.69-21.82
				C240.27-147.94,230.56-157.7,218.55-157.75"/>
		</defs>
		<clipPath id="SVGID_120_">
			<use xlink:href="#SVGID_119_"  style="overflow:visible;"/>
		</clipPath>
		<g id="Group_450" transform="translate(166.838 -199.297)" class="st60">
			<g>
				<defs>
					<rect id="SVGID_121_" x="-207.79" y="-7110.99" width="1347.98" height="8689.46"/>
				</defs>
				<clipPath id="SVGID_122_">
					<use xlink:href="#SVGID_121_"  style="overflow:visible;"/>
				</clipPath>
				<g id="Group_449" transform="translate(-235.29 -7149.994)" class="st61">
					<path id="Path_569" class="st2" d="M256.21,7182.41h61.6v61.9h-61.6V7182.41z"/>
				</g>
			</g>
		</g>
	</g>
	<g>
		<defs>
			<path id="SVGID_123_" d="M214.8-128.11c-1.23,1.08-2.81,1.66-4.45,1.64c-1.27,0-2.52-0.33-3.62-0.96
				c-2.31-1.39-3.72-3.91-3.68-6.61c-0.02-2.71,1.39-5.24,3.71-6.64c1.07-0.62,2.29-0.94,3.53-0.93c1.65-0.03,3.26,0.56,4.51,1.64
				v-1.33h2.82v14.51h-2.82L214.8-128.11z M214.71-136.75c-0.97-1.29-2.49-2.06-4.11-2.07c-2.56,0-4.63,2.07-4.63,4.63
				c0,0.05,0,0.11,0,0.16c-0.03,2.61,2.05,4.75,4.66,4.79c0.04,0,0.08,0,0.13,0c1.57-0.03,3.04-0.8,3.96-2.07L214.71-136.75z"/>
		</defs>
		<clipPath id="SVGID_124_">
			<use xlink:href="#SVGID_123_"  style="overflow:visible;"/>
		</clipPath>
		<g id="Group_452" transform="translate(175.551 -180.601)" class="st62">
			<g>
				<defs>
					<rect id="SVGID_125_" x="-216.5" y="-7129.69" width="1347.98" height="8689.46"/>
				</defs>
				<clipPath id="SVGID_126_">
					<use xlink:href="#SVGID_125_"  style="overflow:visible;"/>
				</clipPath>
				<g id="Group_451" transform="translate(-244.003 -7168.69)" class="st63">
					<path id="Path_572" class="st2" d="M264.92,7201.11h27.74v28.29h-27.74L264.92,7201.11z"/>
				</g>
			</g>
		</g>
	</g>
	<g>
		<defs>
			<path id="SVGID_127_" d="M231.74-126.78c-0.74,0.21-1.5,0.32-2.27,0.31c-1.55,0.07-3.04-0.55-4.08-1.7
				c-0.86-1.1-1.27-2.47-1.17-3.86v-6.64h-3.68v-2.62h3.68v-4.01h2.91v4.01h4.6v2.62h-4.6v6.79c-0.08,0.65,0.08,1.3,0.43,1.85
				c0.53,0.52,1.25,0.8,1.99,0.77c0.54,0,1.08-0.06,1.6-0.19L231.74-126.78z"/>
		</defs>
		<clipPath id="SVGID_128_">
			<use xlink:href="#SVGID_127_"  style="overflow:visible;"/>
		</clipPath>
		<g id="Group_454" transform="translate(193.043 -184.306)" class="st64">
			<g>
				<defs>
					<rect id="SVGID_129_" x="-233.99" y="-7125.98" width="1347.98" height="8689.46"/>
				</defs>
				<clipPath id="SVGID_130_">
					<use xlink:href="#SVGID_129_"  style="overflow:visible;"/>
				</clipPath>
				<g id="Group_453" transform="translate(-261.495 -7164.985)" class="st65">
					<path id="Path_575" class="st2" d="M282.41,7197.4h24.36v32h-24.36V7197.4z"/>
				</g>
			</g>
		</g>
	</g>
	<g>
		<defs>
			<path id="SVGID_131_" d="M301.97-111.56c-13.41-0.06-24.25-10.96-24.22-24.37c-0.03-13.41,10.81-24.31,24.22-24.37
				c13.41,0.06,24.24,10.96,24.22,24.37C326.22-122.52,315.39-111.62,301.97-111.56 M301.97-157.75
				c-12.01,0.05-21.71,9.81-21.69,21.82c-0.02,12.01,9.68,21.77,21.69,21.82c12.01-0.05,21.71-9.81,21.69-21.82
				C323.69-147.94,313.98-157.7,301.97-157.75"/>
		</defs>
		<clipPath id="SVGID_132_">
			<use xlink:href="#SVGID_131_"  style="overflow:visible;"/>
		</clipPath>
		<g id="Group_456" transform="translate(250.256 -199.297)" class="st66">
			<g>
				<defs>
					<rect id="SVGID_133_" x="-291.21" y="-7110.99" width="1347.98" height="8689.46"/>
				</defs>
				<clipPath id="SVGID_134_">
					<use xlink:href="#SVGID_133_"  style="overflow:visible;"/>
				</clipPath>
				<g id="Group_455" transform="translate(-318.708 -7149.994)" class="st67">
					<path id="Path_578" class="st2" d="M339.63,7182.41h61.6v61.9h-61.6V7182.41z"/>
				</g>
			</g>
		</g>
	</g>
	<g>
		<defs>
			<path id="SVGID_135_" d="M289.17-125.59h-2.82v-21.92h2.91v8.68c1.24-1.03,2.81-1.59,4.42-1.57c1.24-0.02,2.46,0.3,3.53,0.93
				c2.32,1.4,3.74,3.93,3.71,6.64c0.03,2.7-1.37,5.22-3.68,6.61c-1.1,0.63-2.35,0.96-3.62,0.96c-1.63,0.03-3.22-0.56-4.45-1.64
				L289.17-125.59z M289.26-130.13c0.92,1.27,2.39,2.04,3.96,2.07c2.61,0.03,4.75-2.05,4.79-4.66c0-0.04,0-0.08,0-0.12
				c0.09-2.56-1.92-4.7-4.48-4.78c-0.05,0-0.11,0-0.16,0c-1.62,0.01-3.14,0.78-4.11,2.07L289.26-130.13z"/>
		</defs>
		<clipPath id="SVGID_136_">
			<use xlink:href="#SVGID_135_"  style="overflow:visible;"/>
		</clipPath>
		<g id="Group_458" transform="translate(258.848 -186.513)" class="st68">
			<g>
				<defs>
					<rect id="SVGID_137_" x="-299.8" y="-7123.78" width="1347.98" height="8689.46"/>
				</defs>
				<clipPath id="SVGID_138_">
					<use xlink:href="#SVGID_137_"  style="overflow:visible;"/>
				</clipPath>
				<g id="Group_457" transform="translate(-327.3 -7162.777)" class="st69">
					<path id="Path_581" class="st2" d="M348.22,7195.2h27.74v35.4h-27.74V7195.2z"/>
				</g>
			</g>
		</g>
	</g>
	<g>
		<defs>
			<path id="SVGID_139_" d="M315.01-126.92c-1.23,1.08-2.81,1.66-4.45,1.64c-1.27,0-2.52-0.33-3.62-0.96
				c-2.31-1.39-3.72-3.91-3.68-6.61c-0.02-2.71,1.39-5.24,3.71-6.64c1.07-0.62,2.29-0.94,3.53-0.93c1.65-0.03,3.26,0.56,4.51,1.64
				v-1.33h2.82v14.51h-2.82L315.01-126.92z M314.92-135.56c-0.97-1.29-2.49-2.06-4.11-2.07c-2.56,0-4.63,2.07-4.63,4.63
				c0,0.05,0,0.11,0,0.16c-0.03,2.61,2.05,4.75,4.66,4.79c0.04,0,0.08,0,0.13,0c1.57-0.03,3.04-0.8,3.96-2.07V-135.56z"/>
		</defs>
		<clipPath id="SVGID_140_">
			<use xlink:href="#SVGID_139_"  style="overflow:visible;"/>
		</clipPath>
		<g id="Group_460" transform="translate(275.756 -179.412)" class="st70">
			<g>
				<defs>
					<rect id="SVGID_141_" x="-316.71" y="-7130.88" width="1347.98" height="8689.46"/>
				</defs>
				<clipPath id="SVGID_142_">
					<use xlink:href="#SVGID_141_"  style="overflow:visible;"/>
				</clipPath>
				<g id="Group_459" transform="translate(-344.208 -7169.878)" class="st71">
					<path id="Path_584" class="st2" d="M365.13,7202.3h27.74v28.29h-27.74V7202.3z"/>
				</g>
			</g>
		</g>
	</g>
	<g>
		<defs>
			<path id="SVGID_143_" d="M385.4-111.56c-13.41-0.06-24.25-10.96-24.22-24.37c-0.02-13.41,10.81-24.31,24.22-24.37
				c13.41,0.06,24.24,10.96,24.21,24.37C409.64-122.52,398.81-111.62,385.4-111.56 M385.4-157.75
				c-12.01,0.05-21.71,9.81-21.69,21.82c-0.03,12.01,9.68,21.78,21.69,21.83c12.01-0.05,21.71-9.82,21.68-21.83
				C407.1-147.94,397.4-157.7,385.4-157.75"/>
		</defs>
		<clipPath id="SVGID_144_">
			<use xlink:href="#SVGID_143_"  style="overflow:visible;"/>
		</clipPath>
		<g id="Group_462" transform="translate(333.676 -199.297)" class="st72">
			<g>
				<defs>
					<rect id="SVGID_145_" x="-374.63" y="-7110.99" width="1347.98" height="8689.46"/>
				</defs>
				<clipPath id="SVGID_146_">
					<use xlink:href="#SVGID_145_"  style="overflow:visible;"/>
				</clipPath>
				<g id="Group_461" transform="translate(-402.128 -7149.994)" class="st73">
					<path id="Path_587" class="st2" d="M423.05,7182.41h61.6v61.9h-61.6V7182.41z"/>
				</g>
			</g>
		</g>
	</g>
	<g>
		<defs>
			<path id="SVGID_147_" d="M377.99-125.42h-2.82v-21.92h2.91v8.68c1.24-1.03,2.81-1.59,4.42-1.57c1.24-0.02,2.46,0.3,3.53,0.93
				c2.32,1.4,3.74,3.93,3.71,6.64c0.03,2.7-1.37,5.21-3.68,6.6c-1.1,0.63-2.35,0.96-3.62,0.96c-1.63,0.03-3.22-0.56-4.45-1.64
				L377.99-125.42z M378.08-129.96c0.92,1.27,2.39,2.04,3.96,2.07c2.61,0.03,4.75-2.05,4.79-4.66c0-0.04,0-0.08,0-0.12
				c0.09-2.56-1.92-4.7-4.47-4.78c-0.05,0-0.11,0-0.16,0c-1.62,0.01-3.14,0.78-4.11,2.07L378.08-129.96z"/>
		</defs>
		<clipPath id="SVGID_148_">
			<use xlink:href="#SVGID_147_"  style="overflow:visible;"/>
		</clipPath>
		<g id="Group_464" transform="translate(347.668 -186.343)" class="st74">
			<g>
				<defs>
					<rect id="SVGID_149_" x="-388.62" y="-7123.95" width="1347.98" height="8689.46"/>
				</defs>
				<clipPath id="SVGID_150_">
					<use xlink:href="#SVGID_149_"  style="overflow:visible;"/>
				</clipPath>
				<g id="Group_463" transform="translate(-416.12 -7162.947)" class="st75">
					<path id="Path_590" class="st2" d="M437.04,7195.37h27.74v35.4h-27.74V7195.37z"/>
				</g>
			</g>
		</g>
	</g>
	<g>
		<defs>
			<rect id="SVGID_151_" x="393.27" y="-147.34" width="2.91" height="21.92"/>
		</defs>
		<clipPath id="SVGID_152_">
			<use xlink:href="#SVGID_151_"  style="overflow:visible;"/>
		</clipPath>
		<g id="Group_466" transform="translate(365.772 -186.344)" class="st76">
			<g>
				<defs>
					<rect id="SVGID_153_" x="-406.72" y="-7123.95" width="1347.98" height="8689.46"/>
				</defs>
				<clipPath id="SVGID_154_">
					<use xlink:href="#SVGID_153_"  style="overflow:visible;"/>
				</clipPath>
				<g id="Group_465" transform="translate(-434.224 -7162.947)" class="st77">
					<path id="Path_593" class="st2" d="M455.14,7195.37h16.08v35.09h-16.08V7195.37z"/>
				</g>
			</g>
		</g>
	</g>
	<g>
		<defs>
			<rect id="SVGID_155_" x="444.59" y="-161" width="48.9" height="49.2"/>
		</defs>
		<clipPath id="SVGID_156_">
			<use xlink:href="#SVGID_155_"  style="overflow:visible;"/>
		</clipPath>
		<g id="Group_471" transform="translate(417.094 -200)" class="st78">
			<g>
				<defs>
					<rect id="SVGID_157_" x="-458.05" y="-7110.29" width="1347.98" height="8689.46"/>
				</defs>
				<clipPath id="SVGID_158_">
					<use xlink:href="#SVGID_157_"  style="overflow:visible;"/>
				</clipPath>
				<g id="Group_470" transform="translate(-485.546 -7149.291)" class="st79">
					<g>
						<defs>
							<rect id="SVGID_159_" x="511.93" y="7186.97" width="50.02" height="51.34"/>
						</defs>
						<clipPath id="SVGID_160_">
							<use xlink:href="#SVGID_159_"  style="overflow:visible;"/>
						</clipPath>
						<g id="Group_469" transform="translate(484.43 7147.974)" class="st80">
							<g>
								<defs>
									<path id="SVGID_161_" d="M53.07,89.52c-13.54-0.06-24.48-11.06-24.45-24.6c-0.03-13.54,10.91-24.54,24.45-24.6
										c13.54,0.06,24.48,11.06,24.45,24.6C77.54,78.45,66.61,89.46,53.07,89.52 M53.07,42.88c-12.13,0.05-21.93,9.91-21.9,22.03
										c-0.03,12.13,9.77,21.99,21.9,22.03c12.12-0.05,21.92-9.91,21.89-22.03C74.98,52.79,65.19,42.94,53.07,42.88"/>
								</defs>
								<clipPath id="SVGID_162_">
									<use xlink:href="#SVGID_161_"  style="overflow:visible;"/>
								</clipPath>
								<g id="Group_468" transform="translate(1.117 1.316)" class="st81">
									<g>
										<defs>
											<rect id="SVGID_163_" x="26.38" y="37.68" width="50.02" height="51.34"/>
										</defs>
										<clipPath id="SVGID_164_">
											<use xlink:href="#SVGID_163_"  style="overflow:visible;"/>
										</clipPath>
										<g id="Group_467" transform="translate(-1.117 -1.316)" class="st82">
											<path id="Path_596" class="st2" d="M22.03,33.73H84.1V96.1H22.03V33.73z"/>
										</g>
									</g>
								</g>
							</g>
						</g>
					</g>
				</g>
			</g>
		</g>
	</g>
	<g>
		<defs>
			<path id="SVGID_165_" d="M459.01-125.48h-2.85v-22.13h2.94v8.76c1.25-1.04,2.83-1.6,4.46-1.59c1.25-0.02,2.48,0.31,3.56,0.93
				c2.35,1.41,3.77,3.96,3.75,6.7c0.03,2.73-1.38,5.27-3.72,6.67c-1.11,0.63-2.37,0.96-3.66,0.97c-1.65,0.03-3.25-0.56-4.49-1.65
				L459.01-125.48z M459.11-130.06c0.93,1.29,2.41,2.06,4,2.09c2.63,0.04,4.8-2.07,4.83-4.71c0-0.04,0-0.08,0-0.13
				c0.09-2.58-1.94-4.74-4.52-4.83c-0.05,0-0.11,0-0.16,0c-1.63,0.01-3.17,0.78-4.15,2.09L459.11-130.06z"/>
		</defs>
		<clipPath id="SVGID_166_">
			<use xlink:href="#SVGID_165_"  style="overflow:visible;"/>
		</clipPath>
		<g id="Group_473" transform="translate(428.665 -186.611)" class="st83">
			<g>
				<defs>
					<rect id="SVGID_167_" x="-469.62" y="-7123.68" width="1347.98" height="8689.46"/>
				</defs>
				<clipPath id="SVGID_168_">
					<use xlink:href="#SVGID_167_"  style="overflow:visible;"/>
				</clipPath>
				<g id="Group_472" transform="translate(-497.117 -7162.679)" class="st84">
					<path id="Path_601" class="st2" d="M518.03,7195.1h27.88v35.61h-27.88V7195.1z"/>
				</g>
			</g>
		</g>
	</g>
	<g>
		<defs>
			<path id="SVGID_169_" d="M483.74-125.48c-0.75,0.21-1.52,0.32-2.29,0.31c-1.56,0.07-3.07-0.56-4.12-1.71
				c-0.87-1.11-1.29-2.5-1.18-3.9v-6.7h-3.72v-2.65h3.72v-4.05h2.94v4.05h4.65v2.65h-4.65v6.86c-0.08,0.65,0.08,1.32,0.43,1.87
				c0.53,0.53,1.26,0.81,2.01,0.78c0.54,0,1.08-0.06,1.61-0.19L483.74-125.48z"/>
		</defs>
		<clipPath id="SVGID_170_">
			<use xlink:href="#SVGID_169_"  style="overflow:visible;"/>
		</clipPath>
		<g id="Group_475" transform="translate(444.93 -183.182)" class="st85">
			<g>
				<defs>
					<rect id="SVGID_171_" x="-485.88" y="-7127.11" width="1347.98" height="8689.46"/>
				</defs>
				<clipPath id="SVGID_172_">
					<use xlink:href="#SVGID_171_"  style="overflow:visible;"/>
				</clipPath>
				<g id="Group_474" transform="translate(-513.382 -7166.108)" class="st86">
					<path id="Path_604" class="st2" d="M534.3,7198.53h24.47v32.18H534.3V7198.53z"/>
				</g>
			</g>
		</g>
	</g>
	<g>
		<defs>
			<rect id="SVGID_173_" x="27.5" y="-90.66" width="50.11" height="50.43"/>
		</defs>
		<clipPath id="SVGID_174_">
			<use xlink:href="#SVGID_173_"  style="overflow:visible;"/>
		</clipPath>
		<g id="Group_480" transform="translate(0 -129.663)" class="st87">
			<g>
				<defs>
					<rect id="SVGID_175_" x="-40.95" y="-7180.63" width="1347.98" height="8689.46"/>
				</defs>
				<clipPath id="SVGID_176_">
					<use xlink:href="#SVGID_175_"  style="overflow:visible;"/>
				</clipPath>
				<g id="Group_479" transform="translate(-68.452 -7219.627)" class="st88">
					<g>
						<defs>
							<rect id="SVGID_177_" x="94.64" y="7258.06" width="52.65" height="51.34"/>
						</defs>
						<clipPath id="SVGID_178_">
							<use xlink:href="#SVGID_177_"  style="overflow:visible;"/>
						</clipPath>
						<g id="Group_478" transform="translate(67.136 7219.059)" class="st89">
							<g>
								<defs>
									<path id="SVGID_179_" d="M53.87,89.99C40,89.94,28.79,78.66,28.82,64.78C28.79,50.91,40,39.63,53.87,39.57
										c13.88,0.06,25.08,11.34,25.06,25.21C78.96,78.66,67.75,89.94,53.87,89.99 M53.87,42.2
										c-12.42,0.05-22.46,10.15-22.44,22.58c-0.02,12.42,10.01,22.53,22.44,22.58c12.43-0.05,22.47-10.15,22.44-22.58
										C76.34,52.36,66.3,42.26,53.87,42.2"/>
								</defs>
								<clipPath id="SVGID_180_">
									<use xlink:href="#SVGID_179_"  style="overflow:visible;"/>
								</clipPath>
								<g id="Group_477" transform="translate(1.316 0.568)" class="st90">
									<g>
										<defs>
											<rect id="SVGID_181_" x="27.5" y="38.43" width="51.34" height="51.34"/>
										</defs>
										<clipPath id="SVGID_182_">
											<use xlink:href="#SVGID_181_"  style="overflow:visible;"/>
										</clipPath>
										<g id="Group_476" transform="translate(0 -0.568)" class="st91">
											<path id="Path_607" class="st2" d="M20.92,32.99H84.2v63.59H20.92V32.99z"/>
										</g>
									</g>
								</g>
							</g>
						</g>
					</g>
				</g>
			</g>
		</g>
	</g>
	<g>
		<defs>
			<path id="SVGID_183_" d="M51.29-59.88c-1.48,2.22-3.97,3.54-6.64,3.51c-4.25,0.15-7.82-3.18-7.96-7.43c0-0.13-0.01-0.27,0-0.4
				c-0.12-4.21,3.2-7.71,7.41-7.83c0.12,0,0.25,0,0.37,0c2.52,0.01,4.88,1.22,6.35,3.26l-2.22,1.88c-0.92-1.38-2.46-2.23-4.13-2.27
				c-2.62-0.01-4.76,2.12-4.76,4.74c0,0.07,0,0.14,0,0.21c-0.11,2.63,1.93,4.84,4.56,4.95c0.13,0.01,0.26,0.01,0.4,0
				c1.74-0.02,3.35-0.89,4.32-2.33L51.29-59.88z"/>
		</defs>
		<clipPath id="SVGID_184_">
			<use xlink:href="#SVGID_183_"  style="overflow:visible;"/>
		</clipPath>
		<g id="Group_482" transform="translate(9.19 -111.022)" class="st92">
			<g>
				<defs>
					<rect id="SVGID_185_" x="-50.14" y="-7199.27" width="1347.98" height="8689.46"/>
				</defs>
				<clipPath id="SVGID_186_">
					<use xlink:href="#SVGID_185_"  style="overflow:visible;"/>
				</clipPath>
				<g id="Group_481" transform="translate(-77.642 -7238.268)" class="st93">
					<path id="Path_612" class="st2" d="M98.56,7270.69h27.77v28.82H98.56V7270.69z"/>
				</g>
			</g>
		</g>
	</g>
	<g>
		<defs>
			<path id="SVGID_187_" d="M64.95-58.06c-1.27,1.11-2.91,1.72-4.6,1.69c-1.31,0-2.6-0.34-3.75-0.99c-2.39-1.44-3.84-4.04-3.81-6.84
				c-0.02-2.81,1.44-5.42,3.84-6.87c1.11-0.64,2.37-0.98,3.65-0.96c1.71-0.03,3.37,0.57,4.67,1.69v-1.37h2.92v15.01h-2.92V-58.06z
				 M64.85-67.01c-1.01-1.34-2.58-2.13-4.25-2.14c-2.65,0-4.79,2.14-4.8,4.79c0,0.05,0,0.11,0,0.16c-0.04,2.7,2.12,4.91,4.82,4.95
				c0.04,0,0.09,0,0.13,0c1.63-0.03,3.15-0.82,4.1-2.14L64.85-67.01z"/>
		</defs>
		<clipPath id="SVGID_188_">
			<use xlink:href="#SVGID_187_"  style="overflow:visible;"/>
		</clipPath>
		<g id="Group_484" transform="translate(25.288 -111.022)" class="st94">
			<g>
				<defs>
					<rect id="SVGID_189_" x="-66.24" y="-7199.27" width="1347.98" height="8689.46"/>
				</defs>
				<clipPath id="SVGID_190_">
					<use xlink:href="#SVGID_189_"  style="overflow:visible;"/>
				</clipPath>
				<g id="Group_483" transform="translate(-93.74 -7238.269)" class="st95">
					<path id="Path_615" class="st2" d="M114.66,7270.69h28.24v28.82h-28.24V7270.69z"/>
				</g>
			</g>
		</g>
	</g>
	<g>
		<defs>
			<path id="SVGID_191_" d="M134.56-40.42c-13.83-0.06-25-11.3-24.97-25.12c-0.03-13.83,11.14-25.06,24.97-25.12
				c13.83,0.06,25,11.3,24.97,25.12C159.56-51.71,148.39-40.47,134.56-40.42 M134.56-88.04c-12.38,0.05-22.38,10.12-22.36,22.5
				c-0.03,12.38,9.98,22.45,22.36,22.5c12.38-0.05,22.38-10.12,22.36-22.5C156.94-77.92,146.94-87.99,134.56-88.04"/>
		</defs>
		<clipPath id="SVGID_192_">
			<use xlink:href="#SVGID_191_"  style="overflow:visible;"/>
		</clipPath>
		<g id="Group_486" transform="translate(82.092 -129.663)" class="st96">
			<g>
				<defs>
					<rect id="SVGID_193_" x="-123.04" y="-7180.63" width="1347.98" height="8689.46"/>
				</defs>
				<clipPath id="SVGID_194_">
					<use xlink:href="#SVGID_193_"  style="overflow:visible;"/>
				</clipPath>
				<g id="Group_485" transform="translate(-150.544 -7219.627)" class="st97">
					<path id="Path_618" class="st2" d="M171.46,7252.05h63.1v63.41h-63.1V7252.05z"/>
				</g>
			</g>
		</g>
	</g>
	<g>
		<defs>
			<path id="SVGID_195_" d="M132.61-59.12c-1.47,2.21-3.96,3.53-6.61,3.5c-4.24,0.15-7.79-3.17-7.94-7.4c0-0.13-0.01-0.26,0-0.4
				c-0.12-4.19,3.19-7.68,7.38-7.8c0.12,0,0.25,0,0.37,0c2.51,0.01,4.86,1.21,6.33,3.25l-2.21,1.88c-0.92-1.38-2.46-2.22-4.11-2.26
				c-2.61-0.01-4.74,2.11-4.75,4.72c0,0.07,0,0.14,0,0.22c-0.11,2.62,1.92,4.82,4.54,4.93c0.13,0.01,0.26,0.01,0.4,0
				c1.73-0.02,3.33-0.89,4.3-2.32L132.61-59.12z"/>
		</defs>
		<clipPath id="SVGID_196_">
			<use xlink:href="#SVGID_195_"  style="overflow:visible;"/>
		</clipPath>
		<g id="Group_488" transform="translate(90.554 -110.213)" class="st98">
			<g>
				<defs>
					<rect id="SVGID_197_" x="-131.51" y="-7200.08" width="1347.98" height="8689.46"/>
				</defs>
				<clipPath id="SVGID_198_">
					<use xlink:href="#SVGID_197_"  style="overflow:visible;"/>
				</clipPath>
				<g id="Group_487" transform="translate(-159.006 -7239.078)" class="st99">
					<path id="Path_621" class="st2" d="M179.92,7271.5h27.72v28.76h-27.72V7271.5z"/>
				</g>
			</g>
		</g>
	</g>
	<g>
		<defs>
			<path id="SVGID_199_" d="M138.68-69.59c1.22-1.04,2.76-1.62,4.36-1.62c2.11,0,4.11,0.97,5.41,2.64c0.95,1.21,1.46,2.74,1.46,5.32
				v7.32h-3.01v-7.48c0.14-1.23-0.18-2.46-0.89-3.47c-0.75-0.93-1.87-1.47-3.07-1.46c-1.67,0.02-3.25,0.81-4.27,2.13v10.28h-3v-22.6
				h3.01V-69.59z"/>
		</defs>
		<clipPath id="SVGID_200_">
			<use xlink:href="#SVGID_199_"  style="overflow:visible;"/>
		</clipPath>
		<g id="Group_490" transform="translate(108.177 -117.534)" class="st100">
			<g>
				<defs>
					<rect id="SVGID_201_" x="-149.13" y="-7192.76" width="1347.98" height="8689.46"/>
				</defs>
				<clipPath id="SVGID_202_">
					<use xlink:href="#SVGID_201_"  style="overflow:visible;"/>
				</clipPath>
				<g id="Group_489" transform="translate(-176.629 -7231.756)" class="st101">
					<path id="Path_624" class="st2" d="M197.55,7264.17h27.4v35.77h-27.4V7264.17z"/>
				</g>
			</g>
		</g>
	</g>
	<g>
		<defs>
			<path id="SVGID_203_" d="M218.41-40.42c-13.83-0.06-25-11.3-24.97-25.12c-0.03-13.83,11.14-25.06,24.97-25.12
				c13.83,0.06,25,11.3,24.97,25.12C243.41-51.71,232.24-40.47,218.41-40.42 M218.42-88.04c-12.38,0.05-22.38,10.12-22.36,22.5
				c-0.02,12.38,9.98,22.45,22.36,22.5c12.38-0.05,22.38-10.12,22.36-22.5C240.8-77.92,230.8-87.98,218.42-88.04"/>
		</defs>
		<clipPath id="SVGID_204_">
			<use xlink:href="#SVGID_203_"  style="overflow:visible;"/>
		</clipPath>
		<g id="Group_492" transform="translate(165.946 -129.663)" class="st102">
			<g>
				<defs>
					<rect id="SVGID_205_" x="-206.9" y="-7180.63" width="1347.98" height="8689.46"/>
				</defs>
				<clipPath id="SVGID_206_">
					<use xlink:href="#SVGID_205_"  style="overflow:visible;"/>
				</clipPath>
				<g id="Group_491" transform="translate(-234.398 -7219.627)" class="st103">
					<path id="Path_627" class="st2" d="M255.32,7252.05h63.1v63.41h-63.1V7252.05z"/>
				</g>
			</g>
		</g>
	</g>
	<g>
		<defs>
			<path id="SVGID_207_" d="M204.82-65.4c0.15,2.54,2.26,4.53,4.81,4.52c1.66,0.02,3.24-0.73,4.27-2.04l1.96,1.88
				c-1.54,1.85-3.85,2.89-6.26,2.8c-4.18,0.06-7.63-3.28-7.69-7.46c0-0.11,0-0.22,0-0.34c0-4.49,3.04-7.8,7.24-7.8
				c4.15,0,7.15,3.37,7.15,7.8c0,0.21-0.01,0.43-0.03,0.64L204.82-65.4z M205.07-67.95h8.1c-0.41-1.85-2.03-3.19-3.92-3.25
				C207.28-71.19,205.56-69.86,205.07-67.95L205.07-67.95z"/>
		</defs>
		<clipPath id="SVGID_208_">
			<use xlink:href="#SVGID_207_"  style="overflow:visible;"/>
		</clipPath>
		<g id="Group_494" transform="translate(174.406 -112.839)" class="st104">
			<g>
				<defs>
					<rect id="SVGID_209_" x="-215.36" y="-7197.45" width="1347.98" height="8689.46"/>
				</defs>
				<clipPath id="SVGID_210_">
					<use xlink:href="#SVGID_209_"  style="overflow:visible;"/>
				</clipPath>
				<g id="Group_493" transform="translate(-242.859 -7236.451)" class="st105">
					<path id="Path_630" class="st2" d="M263.78,7268.87h27.56v28.76h-27.56V7268.87z"/>
				</g>
			</g>
		</g>
	</g>
	<g>
		<defs>
			<path id="SVGID_211_" d="M222.12-72.09c1.21-1.14,2.8-1.76,4.46-1.75c2.11,0,4.11,0.97,5.41,2.64c0.95,1.21,1.46,2.74,1.46,5.32
				v7.32h-3.01v-7.48c0.14-1.23-0.18-2.46-0.89-3.47c-0.75-0.93-1.87-1.47-3.07-1.46c-1.68,0.02-3.25,0.81-4.27,2.13v10.28h-3.01
				v-14.96h2.91L222.12-72.09z"/>
		</defs>
		<clipPath id="SVGID_212_">
			<use xlink:href="#SVGID_211_"  style="overflow:visible;"/>
		</clipPath>
		<g id="Group_496" transform="translate(191.712 -112.839)" class="st106">
			<g>
				<defs>
					<rect id="SVGID_213_" x="-232.66" y="-7197.45" width="1347.98" height="8689.46"/>
				</defs>
				<clipPath id="SVGID_214_">
					<use xlink:href="#SVGID_213_"  style="overflow:visible;"/>
				</clipPath>
				<g id="Group_495" transform="translate(-260.164 -7236.451)" class="st107">
					<path id="Path_633" class="st2" d="M281.08,7268.87h27.4v28.44h-27.4V7268.87z"/>
				</g>
			</g>
		</g>
	</g>
	<g>
		<defs>
			<path id="SVGID_215_" d="M301.99-41.21c-13.61-0.06-24.6-11.12-24.58-24.73c-0.03-13.61,10.97-24.67,24.58-24.73
				c13.61,0.06,24.6,11.12,24.57,24.73C326.59-52.33,315.6-41.26,301.99-41.21 M301.99-88.08c-12.19,0.05-22.03,9.96-22.01,22.14
				c-0.02,12.19,9.82,22.09,22.01,22.14c12.19-0.05,22.03-9.96,22.01-22.14C324.02-78.13,314.18-88.03,301.99-88.08"/>
		</defs>
		<clipPath id="SVGID_216_">
			<use xlink:href="#SVGID_215_"  style="overflow:visible;"/>
		</clipPath>
		<g id="Group_498" transform="translate(249.917 -129.663)" class="st108">
			<g>
				<defs>
					<rect id="SVGID_217_" x="-290.87" y="-7180.63" width="1347.98" height="8689.46"/>
				</defs>
				<clipPath id="SVGID_218_">
					<use xlink:href="#SVGID_217_"  style="overflow:visible;"/>
				</clipPath>
				<g id="Group_497" transform="translate(-318.369 -7219.627)" class="st109">
					<path id="Path_636" class="st2" d="M339.29,7252.05h62.32v62.62h-62.32V7252.05z"/>
				</g>
			</g>
		</g>
	</g>
	<g>
		<defs>
			<path id="SVGID_219_" d="M299.17-75.92c-0.36-0.08-0.72-0.13-1.09-0.12c-0.86-0.01-1.69,0.37-2.24,1.03
				c-0.47,0.79-0.67,1.72-0.56,2.63v1.35h4.52v2.66h-4.52v12.06h-2.96v-12.06h-3.42v-2.66h3.42v-1.25c-0.13-1.44,0.2-2.89,0.93-4.14
				c1.09-1.56,2.89-2.48,4.8-2.44c0.59,0,1.17,0.07,1.74,0.22L299.17-75.92z"/>
		</defs>
		<clipPath id="SVGID_220_">
			<use xlink:href="#SVGID_219_"  style="overflow:visible;"/>
		</clipPath>
		<g id="Group_500" transform="translate(261.391 -117.866)" class="st110">
			<g>
				<defs>
					<rect id="SVGID_221_" x="-302.34" y="-7192.42" width="1347.98" height="8689.46"/>
				</defs>
				<clipPath id="SVGID_222_">
					<use xlink:href="#SVGID_221_"  style="overflow:visible;"/>
				</clipPath>
				<g id="Group_499" transform="translate(-329.843 -7231.425)" class="st111">
					<path id="Path_639" class="st2" d="M350.76,7263.84h24.06v35.72h-24.06V7263.84z"/>
				</g>
			</g>
		</g>
	</g>
	<g>
		<defs>
			<path id="SVGID_223_" d="M309.07-71.35c4.11-0.07,7.5,3.2,7.57,7.31c0,0.12,0,0.25,0,0.37c0.13,4.11-3.09,7.54-7.2,7.67
				c-0.12,0-0.24,0-0.37,0c-4.11,0.07-7.5-3.2-7.57-7.31c0-0.12,0-0.24,0-0.37c-0.13-4.11,3.09-7.54,7.2-7.67
				C308.82-71.35,308.95-71.35,309.07-71.35 M309.07-58.81c2.56-0.01,4.62-2.09,4.61-4.64c0-0.07,0-0.14-0.01-0.22
				c0.13-2.55-1.84-4.72-4.39-4.85c-0.07,0-0.14-0.01-0.21-0.01c-2.56,0.01-4.62,2.09-4.61,4.64c0,0.07,0,0.14,0.01,0.21
				c-0.13,2.55,1.84,4.72,4.39,4.85C308.93-58.82,309-58.81,309.07-58.81"/>
		</defs>
		<clipPath id="SVGID_224_">
			<use xlink:href="#SVGID_223_"  style="overflow:visible;"/>
		</clipPath>
		<g id="Group_502" transform="translate(274.003 -110.346)" class="st112">
			<g>
				<defs>
					<rect id="SVGID_225_" x="-314.95" y="-7199.94" width="1347.98" height="8689.46"/>
				</defs>
				<clipPath id="SVGID_226_">
					<use xlink:href="#SVGID_225_"  style="overflow:visible;"/>
				</clipPath>
				<g id="Group_501" transform="translate(-342.455 -7238.944)" class="st113">
					<path id="Path_642" class="st2" d="M363.37,7271.36h28.3v28.52h-28.3V7271.36z"/>
				</g>
			</g>
		</g>
	</g>
	<g>
		<defs>
			<path id="SVGID_227_" d="M390.96-40.87c-13.7-0.06-24.77-11.2-24.74-24.9c-0.03-13.7,11.04-24.84,24.74-24.9
				c13.7,0.06,24.77,11.2,24.74,24.9C415.73-52.06,404.66-40.92,390.96-40.87 M390.96-88.07c-12.27,0.05-22.18,10.03-22.16,22.3
				c-0.03,12.27,9.89,22.25,22.16,22.3c12.27-0.05,22.18-10.03,22.16-22.3C413.14-78.04,403.23-88.01,390.96-88.07"/>
		</defs>
		<clipPath id="SVGID_228_">
			<use xlink:href="#SVGID_227_"  style="overflow:visible;"/>
		</clipPath>
		<g id="Group_504" transform="translate(338.712 -129.664)" class="st114">
			<g>
				<defs>
					<rect id="SVGID_229_" x="-379.66" y="-7180.63" width="1347.98" height="8689.46"/>
				</defs>
				<clipPath id="SVGID_230_">
					<use xlink:href="#SVGID_229_"  style="overflow:visible;"/>
				</clipPath>
				<g id="Group_503" transform="translate(-407.164 -7219.626)" class="st115">
					<path id="Path_645" class="st2" d="M428.08,7252.04h62.65V7315h-62.65V7252.04z"/>
				</g>
			</g>
		</g>
	</g>
	<g>
		<defs>
			<path id="SVGID_231_" d="M386.2-58.18c-1.3,0-2.57-0.34-3.7-0.98c-2.36-1.42-3.79-3.99-3.76-6.75c-0.02-2.77,1.42-5.35,3.79-6.78
				c1.09-0.64,2.34-0.96,3.61-0.95c1.69-0.03,3.33,0.57,4.61,1.67v-1.36h2.88v14.2c0.1,1.67-0.2,3.33-0.88,4.86
				c-1.23,2.35-3.71,3.78-6.36,3.66c-2.82,0.13-5.51-1.16-7.18-3.44l2.19-2.05c1.06,1.66,2.89,2.66,4.86,2.65
				c1.41,0.09,2.76-0.55,3.57-1.7c0.64-1.17,0.92-2.49,0.82-3.82v-0.82C389.42-58.72,387.83-58.14,386.2-58.18L386.2-58.18z
				 M390.65-68.68c-0.99-1.32-2.55-2.1-4.2-2.11c-2.61,0-4.73,2.11-4.74,4.73c0,0.05,0,0.11,0,0.16c-0.04,2.67,2.1,4.85,4.76,4.89
				c0.04,0,0.09,0,0.13,0c1.61-0.03,3.1-0.81,4.04-2.11L390.65-68.68z"/>
		</defs>
		<clipPath id="SVGID_232_">
			<use xlink:href="#SVGID_231_"  style="overflow:visible;"/>
		</clipPath>
		<g id="Group_506" transform="translate(351.237 -112.643)" class="st116">
			<g>
				<defs>
					<rect id="SVGID_233_" x="-392.19" y="-7197.65" width="1347.98" height="8689.46"/>
				</defs>
				<clipPath id="SVGID_234_">
					<use xlink:href="#SVGID_233_"  style="overflow:visible;"/>
				</clipPath>
				<g id="Group_505" transform="translate(-419.689 -7236.647)" class="st117">
					<path id="Path_648" class="st2" d="M440.61,7269.06h28.05v36.19h-28.05V7269.06z"/>
				</g>
			</g>
		</g>
	</g>
	<g>
		<defs>
			<rect id="SVGID_235_" x="396.98" y="-80.9" width="2.98" height="22.4"/>
		</defs>
		<clipPath id="SVGID_236_">
			<use xlink:href="#SVGID_235_"  style="overflow:visible;"/>
		</clipPath>
		<g id="Group_508" transform="translate(369.484 -119.899)" class="st118">
			<g>
				<defs>
					<rect id="SVGID_237_" x="-410.44" y="-7190.39" width="1347.98" height="8689.46"/>
				</defs>
				<clipPath id="SVGID_238_">
					<use xlink:href="#SVGID_237_"  style="overflow:visible;"/>
				</clipPath>
				<g id="Group_507" transform="translate(-437.936 -7229.391)" class="st119">
					<path id="Path_651" class="st2" d="M458.86,7261.81H475v35.56h-16.14V7261.81z"/>
				</g>
			</g>
		</g>
	</g>
	<g>
		<defs>
			<path id="SVGID_239_" d="M468.75-40.87c-13.7-0.06-24.77-11.2-24.74-24.9c-0.03-13.7,11.04-24.84,24.74-24.9
				c13.7,0.06,24.77,11.2,24.74,24.9C493.52-52.06,482.45-40.92,468.75-40.87 M468.75-88.07c-12.27,0.05-22.18,10.03-22.16,22.3
				c-0.03,12.27,9.89,22.25,22.16,22.3c12.27-0.05,22.18-10.03,22.16-22.3C490.93-78.04,481.02-88.01,468.75-88.07"/>
		</defs>
		<clipPath id="SVGID_240_">
			<use xlink:href="#SVGID_239_"  style="overflow:visible;"/>
		</clipPath>
		<g id="Group_510" transform="translate(416.507 -129.664)" class="st120">
			<g>
				<defs>
					<rect id="SVGID_241_" x="-457.46" y="-7180.63" width="1347.98" height="8689.46"/>
				</defs>
				<clipPath id="SVGID_242_">
					<use xlink:href="#SVGID_241_"  style="overflow:visible;"/>
				</clipPath>
				<g id="Group_509" transform="translate(-484.959 -7219.626)" class="st121">
					<path id="Path_654" class="st2" d="M505.88,7252.04h62.65V7315h-62.65V7252.04z"/>
				</g>
			</g>
		</g>
	</g>
	<g>
		<defs>
			<path id="SVGID_243_" d="M462.9-58.36c-1.3,0-2.57-0.34-3.7-0.98c-2.36-1.42-3.79-3.99-3.76-6.75c-0.02-2.77,1.42-5.35,3.79-6.78
				c1.09-0.64,2.34-0.96,3.6-0.95c1.69-0.03,3.34,0.56,4.62,1.67v-1.36h2.88v14.2c0.1,1.67-0.2,3.33-0.88,4.86
				c-1.23,2.35-3.71,3.78-6.36,3.66c-2.82,0.13-5.51-1.16-7.18-3.44l2.19-2.05c1.06,1.66,2.89,2.66,4.86,2.65
				c1.41,0.09,2.76-0.55,3.57-1.7c0.64-1.17,0.92-2.5,0.81-3.82v-0.82C466.12-58.9,464.53-58.32,462.9-58.36L462.9-58.36z
				 M467.35-68.86c-0.99-1.32-2.55-2.1-4.2-2.11c-2.61,0-4.73,2.11-4.74,4.73c0,0.05,0,0.11,0,0.16c-0.04,2.67,2.1,4.85,4.76,4.89
				c0.04,0,0.09,0,0.13,0c1.61-0.03,3.1-0.82,4.04-2.12L467.35-68.86z"/>
		</defs>
		<clipPath id="SVGID_244_">
			<use xlink:href="#SVGID_243_"  style="overflow:visible;"/>
		</clipPath>
		<g id="Group_512" transform="translate(427.942 -112.817)" class="st122">
			<g>
				<defs>
					<rect id="SVGID_245_" x="-468.89" y="-7197.47" width="1347.98" height="8689.46"/>
				</defs>
				<clipPath id="SVGID_246_">
					<use xlink:href="#SVGID_245_"  style="overflow:visible;"/>
				</clipPath>
				<g id="Group_511" transform="translate(-496.394 -7236.474)" class="st123">
					<path id="Path_657" class="st2" d="M517.31,7268.89h28.05v36.19h-28.05V7268.89z"/>
				</g>
			</g>
		</g>
	</g>
	<g>
		<defs>
			<path id="SVGID_247_" d="M476.61-73.5h2.98v16.09c0.13,1.45-0.2,2.91-0.94,4.16c-1.1,1.57-2.91,2.5-4.83,2.46
				c-0.59,0-1.18-0.07-1.76-0.22l0.63-2.75c0.36,0.08,0.73,0.13,1.1,0.13c0.87,0.01,1.7-0.37,2.26-1.04
				c0.47-0.8,0.67-1.73,0.57-2.65L476.61-73.5z M478.08-80.76c1.09,0,1.97,0.88,1.98,1.97c0,0.01,0,0.01,0,0.02
				c0.01,1.07-0.86,1.95-1.94,1.96c-0.01,0-0.03,0-0.04,0c-1.06,0.01-1.93-0.83-1.94-1.89c0-0.02,0-0.04,0-0.06
				c-0.02-1.08,0.83-1.96,1.91-1.99C478.05-80.76,478.07-80.76,478.08-80.76z"/>
		</defs>
		<clipPath id="SVGID_248_">
			<use xlink:href="#SVGID_247_"  style="overflow:visible;"/>
		</clipPath>
		<g id="Group_514" transform="translate(444.56 -119.757)" class="st124">
			<g>
				<defs>
					<rect id="SVGID_249_" x="-485.51" y="-7190.53" width="1347.98" height="8689.46"/>
				</defs>
				<clipPath id="SVGID_250_">
					<use xlink:href="#SVGID_249_"  style="overflow:visible;"/>
				</clipPath>
				<g id="Group_513" transform="translate(-513.012 -7229.534)" class="st125">
					<path id="Path_660" class="st2" d="M533.93,7261.95h21.16v43.13h-21.16V7261.95z"/>
				</g>
			</g>
		</g>
	</g>
	<g>
		<defs>
			<path id="SVGID_251_" d="M136.16,31.09c-13.88-0.06-25.08-11.34-25.06-25.21C111.08-8,122.29-19.28,136.16-19.34
				C150.04-19.28,161.25-8,161.22,5.87C161.25,19.75,150.04,31.03,136.16,31.09 M136.16-16.7c-12.42,0.05-22.46,10.15-22.44,22.58
				c-0.02,12.42,10.01,22.52,22.44,22.58c12.43-0.05,22.46-10.15,22.44-22.58C158.62-6.56,148.59-16.65,136.16-16.7"/>
		</defs>
		<clipPath id="SVGID_252_">
			<use xlink:href="#SVGID_251_"  style="overflow:visible;"/>
		</clipPath>
		<g id="Group_516" transform="translate(83.607 -58.341)" class="st126">
			<g>
				<defs>
					<rect id="SVGID_253_" x="-124.56" y="-7251.95" width="1347.98" height="8689.46"/>
				</defs>
				<clipPath id="SVGID_254_">
					<use xlink:href="#SVGID_253_"  style="overflow:visible;"/>
				</clipPath>
				<g id="Group_515" transform="translate(-152.059 -7290.95)" class="st127">
					<path id="Path_663" class="st2" d="M172.98,7323.37h63.28v63.59h-63.28V7323.37z"/>
				</g>
			</g>
		</g>
	</g>
	<g>
		<defs>
			<path id="SVGID_255_" d="M124.06,20.02h-3.02V-2.66h2.92v1.37c1.29-1.12,2.96-1.72,4.67-1.69c1.28-0.02,2.54,0.32,3.65,0.96
				c2.4,1.45,3.86,4.06,3.84,6.87c0.03,2.79-1.42,5.4-3.81,6.84c-1.14,0.65-2.43,0.99-3.75,0.99c-1.65,0.03-3.26-0.55-4.51-1.63
				L124.06,20.02z M124.06,7.65c0.95,1.32,2.47,2.11,4.1,2.14c2.7,0.04,4.92-2.12,4.95-4.82c0-0.04,0-0.09,0-0.13
				c0.09-2.65-1.98-4.86-4.63-4.95c-0.05,0-0.11,0-0.16,0c-1.67,0.01-3.25,0.8-4.25,2.14L124.06,7.65z"/>
		</defs>
		<clipPath id="SVGID_256_">
			<use xlink:href="#SVGID_255_"  style="overflow:visible;"/>
		</clipPath>
		<g id="Group_518" transform="translate(93.544 -41.984)" class="st128">
			<g>
				<defs>
					<rect id="SVGID_257_" x="-134.5" y="-7268.31" width="1347.98" height="8689.46"/>
				</defs>
				<clipPath id="SVGID_258_">
					<use xlink:href="#SVGID_257_"  style="overflow:visible;"/>
				</clipPath>
				<g id="Group_517" transform="translate(-161.996 -7307.307)" class="st129">
					<path id="Path_666" class="st2" d="M182.91,7339.73h28.24v36.16h-28.24V7339.73z"/>
				</g>
			</g>
		</g>
	</g>
	<g>
		<defs>
			<path id="SVGID_259_" d="M142,12.35h-2.92v-22.68h3.02v8.98c1.28-1.07,2.9-1.64,4.57-1.63c1.28-0.02,2.54,0.31,3.65,0.96
				c2.4,1.45,3.86,4.06,3.84,6.87c0.03,2.79-1.42,5.4-3.81,6.84c-1.14,0.65-2.43,0.99-3.75,0.99c-1.69,0.03-3.33-0.58-4.6-1.69
				L142,12.35z M142.09,7.65c0.95,1.32,2.47,2.11,4.1,2.14c2.7,0.04,4.92-2.12,4.95-4.82c0-0.04,0-0.09,0-0.13
				c0.09-2.65-1.99-4.86-4.63-4.95c-0.05,0-0.11,0-0.16,0c-1.67,0.01-3.25,0.8-4.25,2.14L142.09,7.65z"/>
		</defs>
		<clipPath id="SVGID_260_">
			<use xlink:href="#SVGID_259_"  style="overflow:visible;"/>
		</clipPath>
		<g id="Group_520" transform="translate(111.578 -49.331)" class="st130">
			<g>
				<defs>
					<rect id="SVGID_261_" x="-152.53" y="-7260.96" width="1347.98" height="8689.46"/>
				</defs>
				<clipPath id="SVGID_262_">
					<use xlink:href="#SVGID_261_"  style="overflow:visible;"/>
				</clipPath>
				<g id="Group_519" transform="translate(-180.03 -7299.959)" class="st131">
					<path id="Path_669" class="st2" d="M200.95,7332.38h28.24v36.17h-28.24V7332.38z"/>
				</g>
			</g>
		</g>
	</g>
	<g>
		<defs>
			<path id="SVGID_263_" d="M219.77,31.09c-13.88-0.06-25.08-11.34-25.06-25.21C194.69-8,205.9-19.28,219.77-19.34
				C233.65-19.28,244.86-8,244.83,5.87C244.86,19.75,233.65,31.03,219.77,31.09 M219.77-16.7c-12.42,0.05-22.46,10.15-22.44,22.58
				c-0.02,12.42,10.01,22.52,22.44,22.58c12.43-0.05,22.46-10.15,22.44-22.58C242.23-6.56,232.2-16.66,219.77-16.7"/>
		</defs>
		<clipPath id="SVGID_264_">
			<use xlink:href="#SVGID_263_"  style="overflow:visible;"/>
		</clipPath>
		<g id="Group_522" transform="translate(167.215 -58.341)" class="st132">
			<g>
				<defs>
					<rect id="SVGID_265_" x="-208.17" y="-7251.95" width="1347.98" height="8689.46"/>
				</defs>
				<clipPath id="SVGID_266_">
					<use xlink:href="#SVGID_265_"  style="overflow:visible;"/>
				</clipPath>
				<g id="Group_521" transform="translate(-235.667 -7290.95)" class="st133">
					<path id="Path_672" class="st2" d="M256.58,7323.37h63.27v63.59h-63.27V7323.37z"/>
				</g>
			</g>
		</g>
	</g>
	<g>
		<defs>
			<path id="SVGID_267_" d="M207.66,18.06h-3.02V-4.62h2.92v1.37c1.29-1.12,2.96-1.72,4.67-1.69c1.28-0.02,2.54,0.31,3.65,0.96
				c2.4,1.45,3.86,4.06,3.84,6.87c0.03,2.79-1.42,5.4-3.81,6.84c-1.14,0.65-2.43,0.99-3.75,0.99c-1.65,0.03-3.26-0.55-4.51-1.63
				V18.06z M207.66,5.7c0.95,1.32,2.47,2.11,4.1,2.14c2.7,0.04,4.92-2.12,4.95-4.82c0-0.04,0-0.09,0-0.13
				c0.09-2.65-1.98-4.86-4.63-4.95c-0.05,0-0.11,0-0.16,0c-1.67,0.01-3.25,0.8-4.26,2.14L207.66,5.7z"/>
		</defs>
		<clipPath id="SVGID_268_">
			<use xlink:href="#SVGID_267_"  style="overflow:visible;"/>
		</clipPath>
		<g id="Group_524" transform="translate(177.149 -43.939)" class="st134">
			<g>
				<defs>
					<rect id="SVGID_269_" x="-218.1" y="-7266.35" width="1347.98" height="8689.46"/>
				</defs>
				<clipPath id="SVGID_270_">
					<use xlink:href="#SVGID_269_"  style="overflow:visible;"/>
				</clipPath>
				<g id="Group_523" transform="translate(-245.601 -7305.352)" class="st135">
					<path id="Path_675" class="st2" d="M266.52,7337.77h28.24v36.16h-28.24V7337.77z"/>
				</g>
			</g>
		</g>
	</g>
	<g>
		<defs>
			<path id="SVGID_271_" d="M237.19,7.2c-1.48,2.22-3.97,3.54-6.64,3.51c-4.25,0.15-7.81-3.18-7.96-7.43c0-0.13-0.01-0.26,0-0.4
				c-0.12-4.21,3.2-7.71,7.41-7.83c0.12,0,0.25,0,0.37,0c2.52,0.01,4.88,1.22,6.35,3.26l-2.23,1.89c-0.92-1.38-2.46-2.23-4.13-2.27
				c-2.62-0.01-4.76,2.11-4.77,4.74c0,0.07,0,0.14,0,0.22c-0.11,2.63,1.93,4.84,4.56,4.95c0.13,0.01,0.26,0.01,0.4,0
				c1.74-0.02,3.35-0.89,4.32-2.34L237.19,7.2z"/>
		</defs>
		<clipPath id="SVGID_272_">
			<use xlink:href="#SVGID_271_"  style="overflow:visible;"/>
		</clipPath>
		<g id="Group_526" transform="translate(195.088 -43.939)" class="st136">
			<g>
				<defs>
					<rect id="SVGID_273_" x="-236.04" y="-7266.35" width="1347.98" height="8689.46"/>
				</defs>
				<clipPath id="SVGID_274_">
					<use xlink:href="#SVGID_273_"  style="overflow:visible;"/>
				</clipPath>
				<g id="Group_525" transform="translate(-263.54 -7305.351)" class="st137">
					<path id="Path_678" class="st2" d="M284.46,7337.77h27.77v28.82h-27.77V7337.77z"/>
				</g>
			</g>
		</g>
	</g>
	<g>
		<defs>
			<path id="SVGID_275_" d="M303,30.32c-13.66-0.06-24.7-11.16-24.67-24.83C278.3-8.18,289.33-19.28,303-19.34
				c13.66,0.06,24.7,11.16,24.68,24.83C327.7,19.15,316.66,30.26,303,30.32 M303-16.75c-12.24,0.05-22.12,10-22.1,22.23
				c-0.02,12.24,9.86,22.18,22.1,22.23c12.24-0.05,22.12-10,22.1-22.23C325.12-6.75,315.23-16.7,303-16.75"/>
		</defs>
		<clipPath id="SVGID_276_">
			<use xlink:href="#SVGID_275_"  style="overflow:visible;"/>
		</clipPath>
		<g id="Group_528" transform="translate(250.822 -58.341)" class="st138">
			<g>
				<defs>
					<rect id="SVGID_277_" x="-291.77" y="-7251.95" width="1347.98" height="8689.46"/>
				</defs>
				<clipPath id="SVGID_278_">
					<use xlink:href="#SVGID_277_"  style="overflow:visible;"/>
				</clipPath>
				<g id="Group_527" transform="translate(-319.274 -7290.95)" class="st139">
					<path id="Path_681" class="st2" d="M340.19,7323.37h62.51v62.82h-62.51V7323.37z"/>
				</g>
			</g>
		</g>
	</g>
	<g>
		<defs>
			<path id="SVGID_279_" d="M293.72,18.76h-3.01v-22.6h2.91v1.37c1.29-1.11,2.94-1.71,4.65-1.69c1.28-0.02,2.53,0.31,3.64,0.95
				c2.4,1.44,3.85,4.05,3.83,6.84c0.03,2.78-1.41,5.38-3.8,6.81c-1.14,0.64-2.42,0.98-3.73,0.99c-1.65,0.03-3.25-0.54-4.49-1.62
				L293.72,18.76z M293.72,6.44c0.95,1.31,2.46,2.1,4.08,2.13c2.69,0.04,4.9-2.12,4.93-4.81c0-0.04,0-0.09,0-0.13
				c0.09-2.64-1.98-4.84-4.61-4.93c-0.05,0-0.11,0-0.16,0c-1.67,0.01-3.24,0.8-4.24,2.13V6.44z"/>
		</defs>
		<clipPath id="SVGID_280_">
			<use xlink:href="#SVGID_279_"  style="overflow:visible;"/>
		</clipPath>
		<g id="Group_530" transform="translate(263.216 -43.156)" class="st140">
			<g>
				<defs>
					<rect id="SVGID_281_" x="-304.17" y="-7267.13" width="1347.98" height="8689.46"/>
				</defs>
				<clipPath id="SVGID_282_">
					<use xlink:href="#SVGID_281_"  style="overflow:visible;"/>
				</clipPath>
				<g id="Group_529" transform="translate(-331.669 -7306.134)" class="st141">
					<path id="Path_684" class="st2" d="M352.59,7338.55h28.19v36.08h-28.19V7338.55z"/>
				</g>
			</g>
		</g>
	</g>
	<g>
		<defs>
			<path id="SVGID_283_" d="M311.34-11.16c1.1,0,1.99,0.89,1.99,1.99c0,0,0,0.01,0,0.01c0.01,1.08-0.87,1.97-1.95,1.97
				c-0.01,0-0.03,0-0.04,0c-1.07,0.01-1.95-0.84-1.96-1.91c0-0.02,0-0.04,0-0.06c-0.02-1.08,0.84-1.98,1.93-2
				C311.31-11.16,311.33-11.16,311.34-11.16z M309.85,11.12h3.01V-3.84h-3.01V11.12z"/>
		</defs>
		<clipPath id="SVGID_284_">
			<use xlink:href="#SVGID_283_"  style="overflow:visible;"/>
		</clipPath>
		<g id="Group_532" transform="translate(281.876 -50.159)" class="st142">
			<g>
				<defs>
					<rect id="SVGID_285_" x="-322.83" y="-7260.13" width="1347.98" height="8689.46"/>
				</defs>
				<clipPath id="SVGID_286_">
					<use xlink:href="#SVGID_285_"  style="overflow:visible;"/>
				</clipPath>
				<g id="Group_531" transform="translate(-350.328 -7299.131)" class="st143">
					<path id="Path_687" class="st2" d="M371.25,7331.55h17.12v35.44h-17.12V7331.55z"/>
				</g>
			</g>
		</g>
	</g>
	<g>
		<defs>
			<path id="SVGID_287_" d="M385.84,30.32c-13.66-0.06-24.7-11.16-24.68-24.83c-0.03-13.66,11.01-24.77,24.68-24.83
				c13.66,0.06,24.7,11.16,24.67,24.83C410.54,19.15,399.5,30.26,385.84,30.32 M385.84-16.75c-12.24,0.05-22.12,10-22.1,22.23
				c-0.02,12.24,9.86,22.18,22.1,22.23c12.24-0.05,22.12-10,22.1-22.23C407.96-6.75,398.08-16.7,385.84-16.75"/>
		</defs>
		<clipPath id="SVGID_288_">
			<use xlink:href="#SVGID_287_"  style="overflow:visible;"/>
		</clipPath>
		<g id="Group_534" transform="translate(333.663 -58.341)" class="st144">
			<g>
				<defs>
					<rect id="SVGID_289_" x="-374.62" y="-7251.95" width="1347.98" height="8689.46"/>
				</defs>
				<clipPath id="SVGID_290_">
					<use xlink:href="#SVGID_289_"  style="overflow:visible;"/>
				</clipPath>
				<g id="Group_533" transform="translate(-402.116 -7290.95)" class="st145">
					<path id="Path_690" class="st2" d="M423.03,7323.37h62.51v62.82h-62.51V7323.37z"/>
				</g>
			</g>
		</g>
	</g>
	<g>
		<defs>
			<path id="SVGID_291_" d="M383.4,1.11c-0.38-0.1-0.77-0.14-1.16-0.13c-1.66,0.11-3.15,1.04-3.97,2.49v9.78h-2.97V-1.54h2.88v1.7
				c1.07-1.33,2.7-2.08,4.41-2.01c0.39,0,0.77,0.03,1.16,0.09L383.4,1.11z"/>
		</defs>
		<clipPath id="SVGID_292_">
			<use xlink:href="#SVGID_291_"  style="overflow:visible;"/>
		</clipPath>
		<g id="Group_536" transform="translate(347.8 -40.849)" class="st146">
			<g>
				<defs>
					<rect id="SVGID_293_" x="-388.75" y="-7269.44" width="1347.98" height="8689.46"/>
				</defs>
				<clipPath id="SVGID_294_">
					<use xlink:href="#SVGID_293_"  style="overflow:visible;"/>
				</clipPath>
				<g id="Group_535" transform="translate(-416.252 -7308.441)" class="st147">
					<path id="Path_693" class="st2" d="M437.17,7340.86h21.6v28.26h-21.6V7340.86z"/>
				</g>
			</g>
		</g>
	</g>
	<g>
		<defs>
			<path id="SVGID_295_" d="M388.33,6.49c0.15,2.51,2.23,4.47,4.75,4.47c1.64,0.02,3.2-0.72,4.22-2.01l1.94,1.86
				c-1.52,1.83-3.81,2.86-6.19,2.77c-4.14,0.06-7.54-3.24-7.6-7.37c0-0.11,0-0.22,0-0.33c0-4.43,3-7.71,7.16-7.71
				c4.1,0,7.07,3.33,7.07,7.71c0,0.21-0.01,0.42-0.03,0.63L388.33,6.49z M388.58,3.97h8c-0.41-1.83-2-3.15-3.88-3.21
				C390.76,0.77,389.07,2.09,388.58,3.97L388.58,3.97z"/>
		</defs>
		<clipPath id="SVGID_296_">
			<use xlink:href="#SVGID_295_"  style="overflow:visible;"/>
		</clipPath>
		<g id="Group_538" transform="translate(357.962 -40.85)" class="st148">
			<g>
				<defs>
					<rect id="SVGID_297_" x="-398.91" y="-7269.44" width="1347.98" height="8689.46"/>
				</defs>
				<clipPath id="SVGID_298_">
					<use xlink:href="#SVGID_297_"  style="overflow:visible;"/>
				</clipPath>
				<g id="Group_537" transform="translate(-426.414 -7308.44)" class="st149">
					<path id="Path_696" class="st2" d="M447.33,7340.86h27.39v28.58h-27.39V7340.86z"/>
				</g>
			</g>
		</g>
	</g>
	<g>
		<defs>
			<path id="SVGID_299_" d="M468.75,30.46c-13.7-0.06-24.77-11.2-24.75-24.9c-0.03-13.7,11.04-24.84,24.75-24.9
				c13.7,0.06,24.77,11.2,24.75,24.9C493.53,19.26,482.46,30.4,468.75,30.46 M468.75-16.74c-12.27,0.05-22.19,10.03-22.16,22.3
				c-0.03,12.27,9.89,22.25,22.16,22.3c12.27-0.05,22.19-10.03,22.16-22.3C490.94-6.71,481.02-16.69,468.75-16.74"/>
		</defs>
		<clipPath id="SVGID_300_">
			<use xlink:href="#SVGID_299_"  style="overflow:visible;"/>
		</clipPath>
		<g id="Group_540" transform="translate(416.507 -58.341)" class="st150">
			<g>
				<defs>
					<rect id="SVGID_301_" x="-457.46" y="-7251.95" width="1347.98" height="8689.46"/>
				</defs>
				<clipPath id="SVGID_302_">
					<use xlink:href="#SVGID_301_"  style="overflow:visible;"/>
				</clipPath>
				<g id="Group_539" transform="translate(-484.959 -7290.95)" class="st151">
					<path id="Path_699" class="st2" d="M505.88,7323.37h62.66v62.97h-62.66V7323.37z"/>
				</g>
			</g>
		</g>
	</g>
	<g>
		<defs>
			<path id="SVGID_303_" d="M459.86,9.58c1.23,1.02,2.76,1.6,4.36,1.64c1.29,0,2.57-0.7,2.57-1.86c0-1.7-2.45-1.8-4.61-2.52
				c-1.79-0.6-3.39-1.74-3.39-3.82c0-3.19,2.82-4.64,5.46-4.64c1.77-0.05,3.51,0.53,4.89,1.64l-1.54,2.15
				c-0.9-0.73-2.01-1.14-3.17-1.17c-1.44,0-2.66,0.69-2.66,1.86c0,1.01,1.16,1.36,2.63,1.74c2.32,0.6,5.36,1.64,5.36,4.7
				c0,2.81-2.6,4.54-5.49,4.54c-2.17,0.04-4.28-0.68-5.96-2.05L459.86,9.58z"/>
		</defs>
		<clipPath id="SVGID_304_">
			<use xlink:href="#SVGID_303_"  style="overflow:visible;"/>
		</clipPath>
		<g id="Group_542" transform="translate(430.825 -40.624)" class="st152">
			<g>
				<defs>
					<rect id="SVGID_305_" x="-471.78" y="-7269.67" width="1347.98" height="8689.46"/>
				</defs>
				<clipPath id="SVGID_306_">
					<use xlink:href="#SVGID_305_"  style="overflow:visible;"/>
				</clipPath>
				<g id="Group_541" transform="translate(-499.277 -7308.666)" class="st153">
					<path id="Path_702" class="st2" d="M520.19,7341.08h24.61v28.62h-24.61V7341.08z"/>
				</g>
			</g>
		</g>
	</g>
	<g>
		<defs>
			<path id="SVGID_307_" d="M475.48-8.56c1.09,0,1.97,0.88,1.98,1.97c0,0.01,0,0.01,0,0.02c0.01,1.07-0.86,1.95-1.94,1.96
				c-0.01,0-0.03,0-0.04,0c-1.06,0.01-1.93-0.84-1.94-1.9c0-0.02,0-0.04,0-0.06c-0.02-1.08,0.83-1.96,1.91-1.99
				C475.45-8.56,475.46-8.56,475.48-8.56z M474,13.52h2.98V-1.31H474V13.52z"/>
		</defs>
		<clipPath id="SVGID_308_">
			<use xlink:href="#SVGID_307_"  style="overflow:visible;"/>
		</clipPath>
		<g id="Group_544" transform="translate(446.032 -47.566)" class="st154">
			<g>
				<defs>
					<rect id="SVGID_309_" x="-486.98" y="-7262.73" width="1347.98" height="8689.46"/>
				</defs>
				<clipPath id="SVGID_310_">
					<use xlink:href="#SVGID_309_"  style="overflow:visible;"/>
				</clipPath>
				<g id="Group_543" transform="translate(-514.484 -7301.725)" class="st155">
					<path id="Path_705" class="st2" d="M535.4,7334.15h17.08v35.25H535.4V7334.15z"/>
				</g>
			</g>
		</g>
	</g>
	<g>
		<defs>
			<path id="SVGID_311_" d="M52.56,101.64c-13.66-0.06-24.7-11.17-24.67-24.83c-0.03-13.66,11.01-24.77,24.67-24.83
				c13.66,0.06,24.7,11.16,24.68,24.83C77.26,90.47,66.22,101.58,52.56,101.64 M52.56,54.58c-12.23,0.05-22.12,10-22.09,22.23
				c-0.02,12.24,9.86,22.18,22.1,22.23c12.24-0.05,22.12-10,22.1-22.23C74.69,64.57,64.8,54.63,52.56,54.58"/>
		</defs>
		<clipPath id="SVGID_312_">
			<use xlink:href="#SVGID_311_"  style="overflow:visible;"/>
		</clipPath>
		<g id="Group_546" transform="translate(0.383 12.982)" class="st156">
			<g>
				<defs>
					<rect id="SVGID_313_" x="-41.33" y="-7323.27" width="1347.98" height="8689.46"/>
				</defs>
				<clipPath id="SVGID_314_">
					<use xlink:href="#SVGID_313_"  style="overflow:visible;"/>
				</clipPath>
				<g id="Group_545" transform="translate(-68.835 -7362.272)" class="st157">
					<path id="Path_708" class="st2" d="M89.75,7394.69h62.51v62.82H89.75V7394.69z"/>
				</g>
			</g>
		</g>
	</g>
	<g>
		<defs>
			<path id="SVGID_315_" d="M40.03,80.29c1.23,1.02,2.75,1.59,4.35,1.64c1.28,0,2.56-0.69,2.56-1.86c0-1.7-2.44-1.79-4.6-2.52
				c-1.78-0.6-3.38-1.73-3.38-3.81c0-3.18,2.81-4.62,5.44-4.62c1.77-0.05,3.5,0.53,4.88,1.64l-1.53,2.14
				c-0.89-0.73-2.01-1.14-3.16-1.16c-1.44,0-2.66,0.69-2.66,1.86c0,1.01,1.16,1.35,2.63,1.73c2.31,0.6,5.35,1.64,5.35,4.69
				c0,2.8-2.6,4.53-5.47,4.53c-2.16,0.04-4.26-0.68-5.94-2.04L40.03,80.29z"/>
		</defs>
		<clipPath id="SVGID_316_">
			<use xlink:href="#SVGID_315_"  style="overflow:visible;"/>
		</clipPath>
		<g id="Group_548" transform="translate(10.996 30.128)" class="st158">
			<g>
				<defs>
					<rect id="SVGID_317_" x="-51.95" y="-7340.42" width="1347.98" height="8689.46"/>
				</defs>
				<clipPath id="SVGID_318_">
					<use xlink:href="#SVGID_317_"  style="overflow:visible;"/>
				</clipPath>
				<g id="Group_547" transform="translate(-79.448 -7379.418)" class="st159">
					<path id="Path_711" class="st2" d="M100.37,7411.84h24.58v28.58h-24.58V7411.84z"/>
				</g>
			</g>
		</g>
	</g>
	<g>
		<defs>
			<path id="SVGID_319_" d="M59.85,69.13c4.12-0.07,7.53,3.21,7.6,7.33c0,0.12,0,0.25,0,0.37c0.13,4.12-3.11,7.57-7.23,7.7
				c-0.12,0-0.25,0-0.37,0c-4.13,0.07-7.53-3.21-7.6-7.34c0-0.12,0-0.25,0-0.37c-0.13-4.12,3.1-7.57,7.23-7.7
				C59.6,69.13,59.73,69.13,59.85,69.13 M59.85,81.71c2.57-0.01,4.64-2.09,4.63-4.66c0-0.07,0-0.14-0.01-0.22
				c0.13-2.56-1.85-4.74-4.41-4.87c-0.07,0-0.14-0.01-0.22-0.01c-2.57,0.01-4.64,2.09-4.63,4.66c0,0.07,0,0.14,0.01,0.22
				c-0.13,2.56,1.85,4.74,4.41,4.87C59.71,81.71,59.78,81.71,59.85,81.71"/>
		</defs>
		<clipPath id="SVGID_320_">
			<use xlink:href="#SVGID_319_"  style="overflow:visible;"/>
		</clipPath>
		<g id="Group_550" transform="translate(24.752 30.127)" class="st160">
			<g>
				<defs>
					<rect id="SVGID_321_" x="-65.7" y="-7340.42" width="1347.98" height="8689.46"/>
				</defs>
				<clipPath id="SVGID_322_">
					<use xlink:href="#SVGID_321_"  style="overflow:visible;"/>
				</clipPath>
				<g id="Group_549" transform="translate(-93.204 -7379.417)" class="st161">
					<path id="Path_714" class="st2" d="M114.12,7411.83h28.36v28.58h-28.36V7411.83z"/>
				</g>
			</g>
		</g>
	</g>
	<g>
		<defs>
			<path id="SVGID_323_" d="M136.55,101.64c-13.66-0.06-24.7-11.16-24.68-24.83c-0.03-13.66,11.01-24.77,24.68-24.83
				c13.66,0.06,24.7,11.16,24.67,24.83C161.25,90.47,150.21,101.58,136.55,101.64 M136.55,54.58c-12.24,0.05-22.12,10-22.1,22.23
				c-0.02,12.24,9.86,22.18,22.1,22.23c12.24-0.05,22.12-10,22.1-22.23C158.67,64.57,148.79,54.63,136.55,54.58"/>
		</defs>
		<clipPath id="SVGID_324_">
			<use xlink:href="#SVGID_323_"  style="overflow:visible;"/>
		</clipPath>
		<g id="Group_552" transform="translate(84.373 12.982)" class="st162">
			<g>
				<defs>
					<rect id="SVGID_325_" x="-125.32" y="-7323.27" width="1347.98" height="8689.46"/>
				</defs>
				<clipPath id="SVGID_326_">
					<use xlink:href="#SVGID_325_"  style="overflow:visible;"/>
				</clipPath>
				<g id="Group_551" transform="translate(-152.825 -7362.272)" class="st163">
					<path id="Path_717" class="st2" d="M173.74,7394.69h62.51v62.82h-62.51V7394.69z"/>
				</g>
			</g>
		</g>
	</g>
	<g>
		<defs>
			<path id="SVGID_327_" d="M133.3,85.61c-0.75,0.22-1.53,0.32-2.31,0.32c-1.57,0.07-3.1-0.56-4.16-1.73
				c-0.87-1.12-1.3-2.52-1.19-3.93V73.5h-3.75v-2.68h3.75v-4.09h2.97v4.09h4.69v2.68h-4.69v6.92c-0.08,0.66,0.08,1.33,0.44,1.89
				c0.54,0.53,1.28,0.82,2.03,0.79c0.55,0,1.09-0.06,1.63-0.19L133.3,85.61z"/>
		</defs>
		<clipPath id="SVGID_328_">
			<use xlink:href="#SVGID_327_"  style="overflow:visible;"/>
		</clipPath>
		<g id="Group_554" transform="translate(94.393 27.737)" class="st164">
			<g>
				<defs>
					<rect id="SVGID_329_" x="-135.35" y="-7338.03" width="1347.98" height="8689.46"/>
				</defs>
				<clipPath id="SVGID_330_">
					<use xlink:href="#SVGID_329_"  style="overflow:visible;"/>
				</clipPath>
				<g id="Group_553" transform="translate(-162.845 -7377.027)" class="st165">
					<path id="Path_720" class="st2" d="M183.76,7409.44h24.57v32.35h-24.57V7409.44z"/>
				</g>
			</g>
		</g>
	</g>
	<g>
		<defs>
			<path id="SVGID_331_" d="M147.62,84.26c-1.25,1.1-2.87,1.69-4.53,1.67c-1.29,0-2.56-0.34-3.69-0.97
				c-2.36-1.42-3.79-3.98-3.75-6.73c-0.02-2.76,1.42-5.34,3.78-6.76c1.09-0.64,2.34-0.96,3.6-0.94c1.69-0.03,3.32,0.56,4.6,1.67
				v-1.35h2.88v14.79h-2.89V84.26z M147.53,75.45c-0.99-1.32-2.54-2.1-4.19-2.11c-2.61,0-4.72,2.11-4.72,4.71c0,0.05,0,0.11,0,0.16
				c-0.04,2.66,2.09,4.84,4.75,4.88c0.04,0,0.08,0,0.12,0c1.6-0.03,3.09-0.81,4.03-2.11L147.53,75.45z"/>
		</defs>
		<clipPath id="SVGID_332_">
			<use xlink:href="#SVGID_331_"  style="overflow:visible;"/>
		</clipPath>
		<g id="Group_556" transform="translate(108.149 31.512)" class="st166">
			<g>
				<defs>
					<rect id="SVGID_333_" x="-149.1" y="-7341.8" width="1347.98" height="8689.46"/>
				</defs>
				<clipPath id="SVGID_334_">
					<use xlink:href="#SVGID_333_"  style="overflow:visible;"/>
				</clipPath>
				<g id="Group_555" transform="translate(-176.601 -7380.802)" class="st167">
					<path id="Path_723" class="st2" d="M197.52,7413.22h28.01v28.58h-28.01V7413.22z"/>
				</g>
			</g>
		</g>
	</g>
	<g>
		<defs>
			<path id="SVGID_335_" d="M52.56,31.09C38.68,31.03,27.47,19.75,27.5,5.87C27.47-8,38.68-19.28,52.56-19.34
				C66.43-19.28,77.64-8,77.62,5.87C77.64,19.75,66.43,31.03,52.56,31.09 M52.56-16.7C40.13-16.65,30.1-6.55,30.12,5.87
				C30.1,18.3,40.13,28.39,52.56,28.45C64.98,28.4,75.02,18.3,75,5.87C75.02-6.55,64.98-16.65,52.56-16.7"/>
		</defs>
		<clipPath id="SVGID_336_">
			<use xlink:href="#SVGID_335_"  style="overflow:visible;"/>
		</clipPath>
		<g id="Group_558" transform="translate(0 -58.341)" class="st168">
			<g>
				<defs>
					<rect id="SVGID_337_" x="-40.95" y="-7251.95" width="1347.98" height="8689.46"/>
				</defs>
				<clipPath id="SVGID_338_">
					<use xlink:href="#SVGID_337_"  style="overflow:visible;"/>
				</clipPath>
				<g id="Group_557" transform="translate(-68.452 -7290.95)" class="st169">
					<path id="Path_726" class="st2" d="M89.37,7323.37h63.28v63.59H89.37V7323.37z"/>
				</g>
			</g>
		</g>
	</g>
	<g>
		<defs>
			<path id="SVGID_339_" d="M45.35-1.96h3.02v16.29c0.13,1.47-0.2,2.94-0.95,4.22c-1.11,1.59-2.95,2.53-4.89,2.49
				c-0.6,0-1.2-0.07-1.78-0.22l0.64-2.78c0.36,0.09,0.74,0.13,1.11,0.13c0.88,0.01,1.72-0.38,2.28-1.05
				c0.48-0.81,0.68-1.75,0.57-2.68V-1.96z M46.84-9.31c1.1,0,2,0.9,2,2c0,0,0,0.01,0,0.01c0.01,1.09-0.87,1.98-1.96,1.98
				c-0.01,0-0.03,0-0.04,0c-1.07,0.01-1.96-0.85-1.97-1.92c0-0.02,0-0.04,0-0.06c-0.02-1.09,0.84-1.99,1.93-2.01
				C46.81-9.31,46.82-9.31,46.84-9.31z"/>
		</defs>
		<clipPath id="SVGID_340_">
			<use xlink:href="#SVGID_339_"  style="overflow:visible;"/>
		</clipPath>
		<g id="Group_560" transform="translate(13.242 -48.309)" class="st170">
			<g>
				<defs>
					<rect id="SVGID_341_" x="-54.19" y="-7261.98" width="1347.98" height="8689.46"/>
				</defs>
				<clipPath id="SVGID_342_">
					<use xlink:href="#SVGID_341_"  style="overflow:visible;"/>
				</clipPath>
				<g id="Group_559" transform="translate(-81.694 -7300.981)" class="st171">
					<path id="Path_729" class="st2" d="M102.61,7333.4h21.26v43.51h-21.26V7333.4z"/>
				</g>
			</g>
		</g>
	</g>
	<g>
		<defs>
			<path id="SVGID_343_" d="M55.41,6.18c0.15,2.55,2.27,4.54,4.83,4.54c1.67,0.02,3.25-0.73,4.29-2.04l1.97,1.89
				c-1.55,1.86-3.87,2.9-6.29,2.81c-4.2,0.06-7.65-3.29-7.71-7.48c0-0.11,0-0.23,0-0.34c0-4.5,3.05-7.83,7.27-7.83
				c4.16,0,7.18,3.39,7.18,7.83c0,0.21-0.01,0.43-0.03,0.64L55.41,6.18z M55.66,3.63h8.13c-0.42-1.86-2.03-3.2-3.94-3.26
				C57.88,0.38,56.15,1.72,55.66,3.63z"/>
		</defs>
		<clipPath id="SVGID_344_">
			<use xlink:href="#SVGID_343_"  style="overflow:visible;"/>
		</clipPath>
		<g id="Group_562" transform="translate(24.989 -41.281)" class="st172">
			<g>
				<defs>
					<rect id="SVGID_345_" x="-65.94" y="-7269.01" width="1347.98" height="8689.46"/>
				</defs>
				<clipPath id="SVGID_346_">
					<use xlink:href="#SVGID_345_"  style="overflow:visible;"/>
				</clipPath>
				<g id="Group_561" transform="translate(-93.441 -7308.009)" class="st173">
					<path id="Path_732" class="st2" d="M114.36,7340.43h27.61v28.82h-27.61V7340.43z"/>
				</g>
			</g>
		</g>
	</g>
</g>
</svg>
